<?xml version="1.0" encoding="utf-8"?>
<!-- Generator: Adobe Illustrator 19.2.1, SVG Export Plug-In . SVG Version: 6.00 Build 0)  -->
<svg version="1.1" id="Layer_1" xmlns="http://www.w3.org/2000/svg" xmlns:xlink="http://www.w3.org/1999/xlink" x="0px" y="0px"
	 viewBox="0 0 176 176" style="enable-background:new 0 0 176 176;" xml:space="preserve">
<style type="text/css">
	.st0{fill:#94C6C9;}
	.st1{fill:#D0FAFA;}
	.st2{fill:none;stroke:#94C6C9;stroke-width:2;stroke-miterlimit:10;}
</style>
<g>
	<g>
		<path class="st0" d="M78.9,0h18.4c8,1.4,16.1,3,23.6,6.1c21.3,8.5,39,25.7,48.1,46.9c3.8,8.6,5.9,17.8,7.1,27.2v17.1
			c-1.4,7.5-2.8,15.1-5.6,22.2c-8.5,22.4-26.6,41-48.8,50.1c-8.2,3.5-17,5.3-25.8,6.5H79.7c-19-2.2-37.5-10.1-51.5-23.2
			C12.3,138.3,2.4,117.8,0,96.5V78.7c2.6-19.6,11-38.6,25.1-52.6C39.3,11.4,58.8,2.6,78.9,0z M74.9,3.1C52,6.5,30.9,19.8,17.7,38.7
			C7.7,52.7,2.5,69.8,1.9,87c14.7,0,29.4,0,44.1,0c0.1-5.4-0.2-10.7,0.1-16.1c0.3-5.4,5.5-9.8,10.8-9.7c19-0.1,38.1,0,57.1,0
			c2.9,0,5.8-0.2,8.7,0.3c4.6,0.8,8.4,4.9,8.7,9.6c0.4,5.3,0,10.6,0.2,15.9c14.2,0.1,28.3,0,42.5,0c-0.5-13-3.4-26-9.4-37.6
			c-8.2-16.3-21.7-29.8-38-38C110.9,3.3,92.4,0.2,74.9,3.1z M48,71.8c0,21.4-0.1,42.8,0,64.2c-0.1,4.7,4.2,8.8,8.9,8.6
			c5.8,0.1,11.7,0,17.5,0c0.1-13.6-0.1-27.1,0-40.7c-0.2-2.7,1.8-5.5,4.6-5.7c5.7-0.3,11.4-0.1,17-0.1c2.7-0.3,5.8,1.8,5.6,4.7
			c0.1,13.9,0,27.9,0.1,41.8c6.4,0,12.8,0.1,19.2,0c4.9-0.1,8.8-4.8,8.4-9.6c0-20.7,0-41.4,0-62.2c0.4-5.2-4.2-10.1-9.4-9.7
			c-21,0-42.1,0-63.1,0C52.3,63.2,47.9,67.1,48,71.8z M1.9,89c0.5,13.5,3.6,27.1,10.1,39c8.5,16.1,22.2,29.4,38.7,37.3
			c16.2,7.9,34.9,10.6,52.6,7.2c22.7-4.1,43.5-17.8,56.2-37.1c9.2-13.7,14-30,14.5-46.5c-14.2,0-28.3-0.1-42.5,0.1
			c0,15.7,0.1,31.3-0.1,46.9c0.1,6-5.4,11.1-11.4,10.8c-21,0-42.1,0.1-63.1,0c-5.8,0.2-11.2-4.8-11-10.7c-0.1-15.7,0-31.4,0-47.1
			C31.3,89,16.6,88.9,1.9,89z M76.6,103.9c-0.1,13.6,0,27.2,0,40.8c7.7,0.1,15.4,0,23.2,0c0-13.6,0-27.2,0-40.7
			c0.2-1.7-1-3.6-2.8-3.6c-5.3-0.3-10.6-0.1-15.9-0.1C78.8,100,76.3,101.5,76.6,103.9z"/>
	</g>
	<path class="st0" d="M79,25c2.4-2.5,5.3-4.9,8.9-5c3.5-0.4,6.9,1.2,9.3,3.7c14.8,14.9,29.8,29.7,44.5,44.6c4.5,4.5,4,12.3-0.7,16.4
		c-2.5-1.8,0-3.9,0.7-5.9c1.2-3.2,0.1-7-2.5-9.2c-14.7-14.6-29.3-29.3-44-44c-3.8-4.7-11.2-3.5-14.6,1.1c-13,13-26,26-39,39
		c-2.7,2.7-6,5.3-6.8,9.3c-0.6,2.9,1.4,5.5,2.8,7.9c-0.5,0.4-1.5,1.2-2,1.6c-4.1-4.4-4.8-11.7-0.3-16.1C50,53.9,64.6,39.5,79,25z"/>
</g>
<g>
	<g>
		<path class="st1" d="M75.1,3.1c17.5-2.9,36,0.2,51.8,8.3c16.3,8.2,29.8,21.7,37.9,38c6,11.6,8.9,24.6,9.4,37.6
			c-14.2,0-28.3,0.1-42.5,0c-0.1-5.3,0.3-10.6-0.2-15.9c-0.4-4.7-4.1-8.8-8.7-9.6c-2.9-0.4-5.8-0.3-8.7-0.3c-19,0-38.1,0-57.1,0
			c-5.4-0.1-10.5,4.2-10.8,9.7c-0.3,5.3,0,10.7-0.1,16.1c-14.7,0-29.4,0-44.1,0c0.5-17.2,5.8-34.2,15.8-48.2
			C31.1,19.8,52.2,6.5,75.1,3.1z M79.1,25c-14.4,14.6-29,29-43.4,43.5c-4.5,4.4-3.7,11.8,0.3,16.1c0.5-0.4,1.5-1.2,2-1.6
			c-1.4-2.4-3.4-5-2.8-7.9c0.7-4,4.1-6.5,6.8-9.3c13-13,26-26,39-39c3.4-4.6,10.8-5.8,14.6-1.1c14.6,14.7,29.3,29.3,44,44
			c2.6,2.2,3.7,6,2.5,9.2c-0.7,2-3.2,4.1-0.7,5.9c4.7-4.1,5.2-12,0.7-16.4c-14.8-14.9-29.7-29.7-44.5-44.6c-2.4-2.5-5.8-4.1-9.3-3.7
			C84.4,20,81.5,22.5,79.1,25z"/>
	</g>
	<path class="st1" d="M48.2,71.9c-0.1-4.7,4.3-8.7,8.9-8.6c21,0,42.1,0,63.1,0c5.3-0.4,9.8,4.5,9.4,9.7c0,20.7,0,41.4,0,62.2
		c0.4,4.8-3.6,9.5-8.4,9.6c-6.4,0.2-12.8,0-19.2,0c-0.1-13.9,0.1-27.9-0.1-41.8c0.1-2.9-2.9-4.9-5.6-4.7c-5.7,0-11.4-0.2-17,0.1
		c-2.8,0.1-4.8,2.9-4.6,5.7c-0.1,13.6,0,27.1-0.1,40.7c-5.8,0-11.7,0.1-17.5,0c-4.6,0.1-9-3.9-8.9-8.6
		C48.1,114.7,48.2,93.3,48.2,71.9z"/>
	<path class="st1" d="M2.1,89c14.7-0.1,29.4,0,44,0c0.1,15.7,0,31.4,0,47.1c-0.2,5.9,5.2,10.9,11,10.7c21,0.1,42.1,0,63.1,0
		c5.9,0.3,11.4-4.8,11.4-10.8c0.2-15.6,0-31.3,0.1-46.9c14.2-0.2,28.3-0.1,42.5-0.1c-0.5,16.4-5.3,32.8-14.5,46.5
		c-12.7,19.3-33.4,33-56.1,37.1c-17.7,3.4-36.4,0.7-52.6-7.2c-16.4-7.9-30.2-21.2-38.7-37.3C5.7,116.1,2.6,102.6,2.1,89z"/>
	<path class="st1" d="M76.7,104c-0.3-2.4,2.2-4,4.4-3.7c5.3,0.1,10.6-0.2,15.9,0.1c1.9,0,3.1,1.9,2.8,3.6c0,13.6,0,27.2,0,40.8
		c-7.7,0-15.4,0-23.2,0C76.7,131.1,76.7,117.5,76.7,104z"/>
</g>
<circle class="st2" cx="88.1" cy="88" r="87"/>
</svg>
