<?xml version="1.0" encoding="utf-8"?>
<!-- Generator: Adobe Illustrator 19.2.1, SVG Export Plug-In . SVG Version: 6.00 Build 0)  -->
<svg version="1.1" id="Layer_1" xmlns="http://www.w3.org/2000/svg" xmlns:xlink="http://www.w3.org/1999/xlink" x="0px" y="0px"
	 viewBox="0 0 176 176" style="enable-background:new 0 0 176 176;" xml:space="preserve">
<style type="text/css">
	.st0{fill:#BD12AB;}
	.st1{fill:none;stroke:#BD12AB;stroke-width:2;stroke-miterlimit:10;}
	.st2{fill:#F2C9F7;}
</style>
<g>
	<g>
		<path class="st0" d="M80.1,0h15.4c17.7,1.7,34.8,8.5,48.5,19.9c18.2,14.8,29.7,37.1,32,60.4v15.9c-2,17.7-8.8,34.9-20.4,48.4
			c-14.8,17.9-36.8,29.1-59.8,31.4H79.9c-16.7-1.9-33.1-8.1-46.3-18.7C14.4,142.5,2.1,119.4,0,95.3V79.8c2.2-20,10.9-39.3,25.1-53.6
			C39.6,11.2,59.5,2,80.1,0z M74,3.2C51.2,6.9,30.3,20.3,17.3,39.3C7.5,53.2,2.5,70.1,1.9,87c12.5,0,24.9,0.1,37.4,0
			c-4.6-4.5-9.4-8.8-13.7-13.5c-2.1-2-0.5-5.9,2.3-6.1c13.2-2,26.5-3.9,39.7-5.8c5.4-11.2,11-22.3,16.5-33.5c1-2,2.1-4.9,4.9-4.7
			c3.3,0.1,4,3.9,5.4,6.2c5.3,10.6,10.4,21.3,15.8,31.9c12.6,1.8,25.2,3.7,37.9,5.5c1.4,0.3,3.4,0.3,4.2,1.7
			c1.3,1.7,0.9,4.3-0.8,5.6c-4.4,4.2-8.6,8.6-13.1,12.7c11.9,0,23.8,0,35.6,0c-0.5-12-2.9-24-8.1-34.9
			c-8.3-18.1-23.2-33.2-41.3-41.7C109,2.9,91.1,0.2,74,3.2z M87.3,27.3c-6,12.1-11.9,24.2-17.9,36.3C55.3,66,41,67.3,27,70.2
			c0.8,3.1,3.7,4.8,5.8,7c8,8,16.3,15.8,24.3,23.8c-2.1,13.4-4.7,26.7-6.7,40c-0.8,1.5,1.1,2.9,2.4,1.9c12.2-6,23.9-12.9,36.2-18.7
			c8.6,4.1,16.9,8.9,25.4,13.2c4.3,2.1,8.2,4.8,12.8,6.1c0.1-1.9,0.1-3.8-0.3-5.6c-2.2-12.3-4.3-24.7-6.4-37
			c9.4-9,18.6-18.2,28.1-27.2c1.1-0.8,2.8-3.6,0.7-3.9c-13.6-2.3-27.3-4-40.9-6.1c-5.9-12.1-11.9-24.2-17.9-36.2
			C90.2,25.6,87.7,25.4,87.3,27.3z M1.9,89c0.5,12.5,3.1,25.1,8.8,36.3c8.7,18.2,24.2,33.1,42.7,41.2c14.5,6.4,30.8,8.9,46.5,6.4
			c23.3-3.1,44.9-16.5,58.4-35.8c10-14,15.2-31,15.7-48.2c-12.5-0.1-25.1-0.1-37.6,0c-4.3,4.4-8.9,8.5-13.2,13
			c2.2,12.3,4.2,24.7,6.4,37c0.2,1.8,0.9,3.8-0.3,5.4c-1.4,1.4-3.7,1.8-5.5,0.8c-11.7-6-23.3-12.3-35-18.3
			c-11.6,6.1-23.2,12.2-34.8,18.3c-2.1,1.4-5.7,0.7-6.2-2.1c-0.1-3,0.7-6,1.2-8.9c1.8-10.7,3.7-21.4,5.5-32.1
			c-4.3-4.4-8.8-8.8-13.3-13C28.1,89,15,89,1.9,89z"/>
	</g>
	<g>
		<path class="st0" d="M86.8,62.7c0.5-1.5,2.2-1.4,3.5-1.2c3.5,5.1,5.2,11.3,8.7,16.5c6.3,1.9,13.5,0.6,19.3,4.2
			c-2.9,6.1-9.1,9.6-13.4,14.6c0.8,5.2,1.8,10.4,2.7,15.6c0.3,1.8,0,4.5-2.4,4.2c-5.6-2.3-10.7-5.6-16.1-8.2
			c-5.1,2.6-10.2,5.3-15.2,8c-0.7,0-2.2-0.1-3-0.1c-1.1-6.5,1.7-12.9,2.3-19.3c-3.4-3.6-7-6.9-10.6-10.3c-1.4-1.2-2.1-2.9-2.8-4.5
			c5.9-3.2,13-2.4,19.3-3.9C81.7,73.1,84.1,67.8,86.8,62.7z M80.7,80.4c-6.1,0.8-12.2,1.8-18.2,2.7c4.3,4.4,8.8,8.6,13.2,12.9
			c-1.1,6.1-2.1,12.2-3.1,18.3c5.5-2.9,10.9-5.8,16.4-8.6c5.5,2.9,10.9,5.7,16.4,8.7c-1-6.1-2-12.2-3.2-18.3
			c4.5-4.2,8.8-8.7,13.3-12.9c-6.1-0.9-12.1-1.8-18.2-2.6c-2.8-5.5-5.5-11.1-8.3-16.6C86.1,69.3,83.6,74.9,80.7,80.4z"/>
	</g>
	<path class="st0" d="M88.8,83.7c0.7,1.1,1.4,2.1,2.1,3.2c0.8,0.2,2.3,0.5,3.1,0.7c-1.3,2-2.4,4.2-1.8,6.6c-1.1-0.5-2.2-1.1-3.2-1.6
		c-1.2,0.5-2.3,1.1-3.5,1.6c0.2-1.3,0.3-2.5,0.5-3.8c-0.9-0.9-1.9-1.8-2.8-2.7c1.3-0.3,2.6-0.6,4-0.9C87.7,85.8,88.2,84.8,88.8,83.7
		z"/>
</g>
<circle class="st1" cx="88.1" cy="88" r="87"/>
<g>
	<path class="st2" d="M74,3.2c17.1-3,35.1-0.3,50.7,7.1c18.1,8.5,32.9,23.5,41.3,41.7c5.2,10.9,7.6,22.9,8.1,34.9
		c-11.9,0-23.7,0-35.6,0c4.5-4.1,8.7-8.5,13.1-12.7c1.7-1.3,2.1-3.8,0.8-5.6c-0.9-1.4-2.8-1.4-4.2-1.7c-12.6-1.8-25.2-3.7-37.9-5.5
		C104.8,51,99.7,40.2,94.4,29.6c-1.3-2.4-2.1-6.1-5.4-6.2c-2.8-0.2-3.8,2.6-4.9,4.7c-5.4,11.2-11,22.3-16.5,33.5
		c-13.2,1.9-26.5,3.8-39.7,5.8c-2.8,0.3-4.4,4.1-2.3,6.1c4.3,4.7,9.1,9,13.7,13.5C26.9,87,14.4,87,1.9,87
		c0.5-16.9,5.6-33.8,15.4-47.7C30.3,20.3,51.2,6.9,74,3.2z"/>
	<g>
		<path class="st2" d="M87.3,27.3c0.4-1.9,2.9-1.7,3.3,0.1c6,12.1,12,24.1,17.9,36.2c13.6,2.1,27.3,3.8,40.9,6.1
			c2.2,0.3,0.5,3.1-0.7,3.9c-9.4,9-18.7,18.2-28.1,27.2c2.1,12.3,4.2,24.7,6.4,37c0.3,1.9,0.3,3.8,0.3,5.6c-4.6-1.3-8.6-4-12.8-6.1
			c-8.5-4.4-16.8-9.1-25.4-13.2c-12.3,5.8-24,12.7-36.2,18.7c-1.3,1-3.2-0.4-2.4-1.9c2-13.4,4.6-26.7,6.7-40
			c-8-8-16.3-15.8-24.3-23.8c-2.1-2.2-5-3.9-5.8-7c14-2.8,28.3-4.2,42.3-6.5C75.3,51.5,81.3,39.4,87.3,27.3z M86.8,62.7
			c-2.7,5.1-5.1,10.3-7.8,15.5c-6.4,1.5-13.5,0.7-19.3,3.9c0.7,1.7,1.4,3.3,2.8,4.5C66,90.1,69.7,93.4,73,97
			c-0.6,6.4-3.4,12.8-2.3,19.3c0.7,0,2.2,0.1,3,0.1c5-2.7,10.1-5.4,15.2-8c5.4,2.6,10.6,5.9,16.1,8.2c2.4,0.3,2.7-2.4,2.4-4.2
			c-0.8-5.2-1.8-10.4-2.7-15.6c4.3-5,10.5-8.5,13.4-14.6c-5.8-3.5-13-2.2-19.3-4.2c-3.5-5.1-5.2-11.3-8.7-16.5
			C89,61.3,87.3,61.2,86.8,62.7z"/>
	</g>
	<g>
		<path class="st2" d="M80.7,80.4c2.9-5.5,5.4-11.1,8.2-16.6c2.8,5.5,5.5,11.1,8.3,16.6c6.1,0.8,12.2,1.7,18.2,2.6
			c-4.5,4.3-8.8,8.7-13.3,12.9c1.1,6.1,2.2,12.2,3.2,18.3c-5.4-2.9-10.9-5.8-16.4-8.7c-5.5,2.8-11,5.7-16.4,8.6
			c1-6.1,2.1-12.2,3.1-18.3c-4.4-4.3-8.9-8.5-13.2-12.9C68.5,82.1,74.6,81.2,80.7,80.4z M88.8,83.7c-0.6,1.1-1.1,2.1-1.7,3.2
			c-1.3,0.3-2.6,0.6-4,0.9c0.9,0.9,1.8,1.8,2.8,2.7c-0.2,1.3-0.3,2.5-0.5,3.8c1.2-0.6,2.3-1.1,3.5-1.6c1.1,0.5,2.2,1.1,3.2,1.6
			c-0.6-2.5,0.5-4.6,1.8-6.6c-0.8-0.2-2.3-0.5-3.1-0.7C90.2,85.8,89.5,84.8,88.8,83.7z"/>
	</g>
	<path class="st2" d="M1.9,89c13.1,0,26.2,0,39.3,0c4.5,4.2,9,8.6,13.3,13c-1.8,10.7-3.7,21.4-5.5,32.1c-0.5,3-1.3,5.9-1.2,8.9
		c0.6,2.8,4.1,3.5,6.2,2.1c11.6-6.1,23.2-12.2,34.8-18.3c11.7,6,23.3,12.3,35,18.3c1.8,1.1,4,0.6,5.5-0.8c1.1-1.6,0.4-3.6,0.3-5.4
		c-2.2-12.3-4.2-24.7-6.4-37c4.2-4.5,8.9-8.5,13.2-13c12.6-0.1,25.1-0.1,37.6,0c-0.6,17.1-5.8,34.2-15.7,48.2
		c-13.4,19.3-35.1,32.7-58.4,35.8c-15.7,2.4-32-0.1-46.5-6.4c-18.5-8.1-34-23-42.7-41.2C5.1,114.1,2.5,101.5,1.9,89z"/>
</g>
</svg>
