<?xml version="1.0" encoding="utf-8"?>
<!-- Generator: Adobe Illustrator 19.2.1, SVG Export Plug-In . SVG Version: 6.00 Build 0)  -->
<svg version="1.1" id="Layer_1" xmlns="http://www.w3.org/2000/svg" xmlns:xlink="http://www.w3.org/1999/xlink" x="0px" y="0px"
	 viewBox="0 0 176 176" style="enable-background:new 0 0 176 176;" xml:space="preserve">
<style type="text/css">
	.st0{fill:#0A648A;}
	.st1{fill:none;stroke:#0A648A;stroke-width:2;stroke-miterlimit:10;}
	.st2{fill:#C4D2E4;}
</style>
<g>
	<g>
		<path class="st0" d="M80,0h16.3c20,2.1,39.3,10.9,53.6,25.1c14.9,14.5,24.1,34.4,26.1,55v16c-1.9,17.2-8.4,33.9-19.4,47.2
			c-14.7,18.5-37.2,30.3-60.7,32.6H79.7c-19.7-2.1-38.8-10.6-53.1-24.6C11.5,136.9,2,116.9,0,96V79.7c2.2-21,11.7-41.1,27.1-55.6
			C41.4,10.4,60.4,1.9,80,0z M76,3C53.5,6,32.5,18.7,19,37C8.2,51.3,2.6,69.1,1.9,87c10.7,0,21.4,0,32.1,0c0.1-4-0.3-7.9,0.2-11.9
			c4.2-2.1,9.4-0.5,14-0.9c3-8.2,6.2-16.4,9.4-24.6c-2.9,0-5.8,0-8.8-0.2c0.3-0.5,0.8-1.6,1.1-2.1c12.1-0.4,24.3,0,36.4-0.2
			c0-6.8,0-13.5,0-20.2c0.6,0.1,1.8,0.2,2.3,0.2c0.1,6.7,0,13.3,0,20c12.5,0.3,25-0.6,37.4,0.5c-0.4,0.5-1.1,1.5-1.5,2
			c-1.7,0-3.3,0-5-0.1c3.3,8.1,6.4,16.4,9.4,24.6c3.8,0.1,7.6-0.5,11.3,0.4c1.9,3.7,0.5,8.3,0.9,12.4c10.9,0,21.8,0,32.8,0
			c-0.7-11.2-2.6-22.5-7.2-32.9c-7.8-18.1-22-33.4-39.5-42.4C111.7,3.6,93.4,0.3,76,3z M59.6,49.5c3.3,8.2,6.3,16.4,9.4,24.6
			c3.8,0.5,8.5-1.2,11.8,1.1c0.6,3.9,0.2,7.8,0.2,11.8c1.8,0,3.6,0,5.4,0c0-12.5,0-24.9,0-37.4C77.5,49.6,68.5,49.6,59.6,49.5z
			 M88.8,49.6c0,12.5,0,24.9,0,37.4c1.8,0,3.6,0,5.3,0c0.2-4.1-0.6-8.3,0.5-12.3c4.5-1.2,9.2-0.3,13.8-0.5c3-8.3,6.2-16.4,9.3-24.7
			C108.1,49.6,98.5,49.6,88.8,49.6z M58.6,53.8c-2.5,6.8-5.1,13.6-7.8,20.3c5.2,0,10.3,0,15.5,0C63.8,67.4,61.2,60.6,58.6,53.8z
			 M111.1,74.2c5.2,0,10.3,0,15.5,0c-2.6-6.8-5.1-13.5-7.8-20.2C116.2,60.7,113.6,67.4,111.1,74.2z M36.3,76.3c0,7.6,0,15.2,0,22.9
			c14.1,0,28.2,0,42.3,0c0-7.6,0-15.2,0-22.9C64.6,76.3,50.4,76.3,36.3,76.3z M96.3,76.3c0,7.6,0,15.2,0,22.8c14.2,0,28.5,0,42.7,0
			c0-7.6,0-15.2,0-22.9C124.8,76.3,110.5,76.3,96.3,76.3z M1.9,89c0.6,12.2,3,24.5,8.5,35.6c7.9,16.7,21.3,30.7,37.7,39.3
			c16.1,8.5,34.9,11.9,52.9,8.9c22.3-3.3,43.1-16,56.3-34.3c10.6-14.2,16-31.8,16.7-49.5c-10.9,0-21.8-0.1-32.8,0
			c-0.1,3.7,0.2,7.4-0.2,11c-0.7,1.6-2.6,1.4-4,1.5c-12.4,0-24.7-0.1-37.1,0c-1.9,0-3.9,0.2-5.5-1c-0.6-3.8-0.2-7.7-0.2-11.6
			c-1.8,0-3.6,0-5.3,0c0,20.8,0,41.6,0,62.4c4.8,0.1,9.5-0.1,14.3,0c1.5-0.1,2.8,0.8,4,1.5c-6.2,1.9-12.7,0.6-19.1,0.9
			c-6.7-0.3-13.6,0.8-20.2-0.9c1.2-0.9,2.5-1.7,4-1.6c4.8-0.1,9.7,0,14.5,0c0-20.8,0-41.6,0-62.4c-1.8,0-3.6,0-5.4,0
			c-0.1,3.7,0.2,7.4-0.2,11.1c-0.6,1.5-2.4,1.3-3.8,1.5c-10.7,0.1-21.4,0-32.1,0c-3.7,0-7.5,0.4-11-1C34,96.7,34,92.9,34,89
			C23.3,89,12.6,89,1.9,89z"/>
	</g>
	<g>
		<path class="st0" d="M57.4,78.9l0.2,0c1.7,1.9,3.8,3.5,5.7,5.2c-1.7-0.4-3.4-0.8-5.1-1.2c0,1.3,0.1,2.6,0.1,3.8
			c1.6,0.9,4.5,1.2,4.6,3.4c0.8,3.5-3.9,4.1-5,6.8c-0.1,0-0.5,0-0.6,0c-1.3-2.6-4.9-3-5.5-6c1.6,0.7,3.2,1.6,4.8,2.4
			c0-1.5,0-3.1,0-4.6c-2-0.9-4.8-1.8-4.4-4.5C53.3,81.9,56.1,81,57.4,78.9z M54.1,84.6c0.7,1,1.5,1.9,2.3,2.9
			c0.1-1.8,0.2-3.5,0.2-5.3C55.8,83,54.9,83.8,54.1,84.6z M58.2,88.6c0.1,1.7,0.2,3.4,0.3,5.1c1.2-1.1,2.3-2.3,3.1-3.7
			C60.5,89.5,59.4,89.1,58.2,88.6z"/>
	</g>
	<path class="st0" d="M111.4,86.2c2.4-2.1,4-5.9,7.6-5.8c2.3-0.2,4.4,1.1,5.7,2.9c-1.9-0.5-3.8-1.1-5.7-1.3
		c-1.8-0.2-2.7,1.8-3.8,2.8c2,0.1,4.1,0.2,6.1,0.2c0,0.4,0.1,1.2,0.1,1.7c-1.9,0.1-3.8,0.1-5.6,0.2l0,1.4c2,0.4,5-0.7,6.1,1.8
		c-2.2,0.2-4.4,0.3-6.7,0.4c2.1,3.7,6.3,2.2,9.4,1.1c-1.2,1.9-3.3,3.3-5.7,3c-3.3,0.2-5-3-7-5.1l-0.4-1c0.7-0.2,2.1-0.5,2.8-0.6
		C113.7,87.6,112.2,86.7,111.4,86.2z"/>
</g>
<circle class="st1" cx="88.1" cy="88" r="87"/>
<g>
	<path class="st2" d="M76,3c17.4-2.7,35.7,0.6,51.3,8.7c17.6,9,31.8,24.3,39.5,42.4c4.6,10.3,6.6,21.6,7.2,32.9
		c-10.9,0-21.8,0-32.8,0c-0.4-4.1,1-8.7-0.9-12.4c-3.7-0.9-7.5-0.3-11.3-0.4c-3-8.3-6.1-16.5-9.4-24.6c1.7,0,3.3,0,5,0.1
		c0.4-0.5,1.1-1.5,1.5-2c-12.4-1.1-24.9-0.2-37.4-0.5c0-6.7,0-13.3,0-20c-0.6-0.1-1.8-0.2-2.3-0.2c-0.1,6.8,0,13.5,0,20.2
		c-12.1,0.1-24.3-0.2-36.4,0.2c-0.3,0.5-0.8,1.6-1.1,2.1c2.9,0.2,5.8,0.2,8.8,0.2c-3.2,8.2-6.3,16.4-9.4,24.6
		c-4.6,0.5-9.8-1.2-14,0.9C33.7,79,34.1,83,34,87c-10.7,0-21.4,0-32.1,0C2.6,69.1,8.2,51.3,19,37C32.5,18.7,53.5,6,76,3z"/>
	<path class="st2" d="M59.6,49.5c8.9,0.1,17.9,0,26.8,0c0,12.5,0,24.9,0,37.4c-1.8,0-3.6,0-5.4,0c-0.1-3.9,0.3-7.9-0.2-11.8
		c-3.3-2.3-7.9-0.6-11.8-1.1C65.9,65.9,62.8,57.7,59.6,49.5z"/>
	<path class="st2" d="M88.8,49.6c9.7,0,19.3,0,29,0c-3.1,8.2-6.3,16.4-9.3,24.7c-4.6,0.2-9.3-0.7-13.8,0.5c-1.1,4-0.4,8.2-0.5,12.3
		c-1.8,0-3.6,0-5.3,0C88.8,74.5,88.8,62.1,88.8,49.6z"/>
	<path class="st2" d="M58.6,53.8c2.6,6.8,5.2,13.6,7.8,20.3c-5.2,0-10.3,0-15.5,0C53.5,67.4,56.1,60.6,58.6,53.8z"/>
	<path class="st2" d="M111.1,74.2c2.6-6.8,5.2-13.5,7.7-20.2c2.7,6.7,5.2,13.5,7.8,20.2C121.4,74.2,116.2,74.2,111.1,74.2z"/>
	<g>
		<path class="st2" d="M36.3,76.3c14.1,0,28.3,0,42.4,0c0,7.6,0,15.2,0,22.9c-14.1,0-28.2,0-42.3,0C36.3,91.6,36.3,83.9,36.3,76.3z
			 M57.4,78.9c-1.4,2.1-4.1,3-5.1,5.3c-0.4,2.8,2.4,3.7,4.4,4.5c0,1.5,0,3.1,0,4.6c-1.6-0.8-3.2-1.7-4.8-2.4c0.6,3.1,4.2,3.4,5.5,6
			c0.1,0,0.5,0,0.6,0c1.2-2.8,5.8-3.3,5-6.8c-0.2-2.2-3-2.5-4.6-3.4c0-1.3-0.1-2.6-0.1-3.8c1.7,0.5,3.4,0.9,5.1,1.2
			c-1.9-1.7-4-3.3-5.7-5.2L57.4,78.9z"/>
	</g>
	<g>
		<path class="st2" d="M96.3,76.3c14.2,0,28.5,0,42.7,0c0,7.6,0,15.2,0,22.9c-14.2,0-28.5,0-42.7,0C96.3,91.5,96.3,83.9,96.3,76.3z
			 M111.4,86.2c0.8,0.4,2.3,1.3,3.1,1.8c-0.7,0.2-2.1,0.5-2.8,0.6l0.4,1c2,2,3.7,5.2,7,5.1c2.4,0.3,4.5-1.1,5.7-3
			c-3.2,1.2-7.3,2.6-9.4-1.1c2.2-0.2,4.4-0.3,6.7-0.4c-1-2.5-4-1.4-6.1-1.8l0-1.4c1.9-0.1,3.8-0.1,5.6-0.2c0-0.4-0.1-1.3-0.1-1.7
			c-2-0.1-4.1-0.1-6.1-0.2c1.1-1.1,2-3,3.8-2.8c1.9,0.2,3.8,0.9,5.7,1.3c-1.3-1.8-3.3-3.2-5.7-2.9C115.4,80.3,113.8,84.1,111.4,86.2
			z"/>
	</g>
	<path class="st2" d="M54.1,84.6c0.8-0.8,1.7-1.6,2.5-2.4c0,1.8-0.1,3.5-0.2,5.3C55.7,86.5,54.8,85.6,54.1,84.6z"/>
	<path class="st2" d="M1.9,89C12.6,89,23.3,89,34,89c0,3.9,0,7.7-0.1,11.6c3.5,1.5,7.3,1,11,1c10.7-0.1,21.4,0,32.1,0
		c1.3-0.1,3.2,0.1,3.8-1.5c0.4-3.7,0.1-7.4,0.2-11.1c1.8,0,3.6,0,5.4,0c0,20.8,0,41.6,0,62.4c-4.8,0-9.7-0.1-14.5,0
		c-1.5-0.1-2.8,0.7-4,1.6c6.6,1.7,13.5,0.5,20.2,0.9c6.3-0.4,12.9,0.9,19.1-0.9c-1.2-0.7-2.5-1.6-4-1.5c-4.8-0.1-9.5,0-14.3,0
		c0-20.8,0-41.6,0-62.4c1.8,0,3.6,0,5.3,0c0.1,3.9-0.3,7.7,0.2,11.6c1.6,1.2,3.7,1,5.5,1c12.4-0.1,24.7,0,37.1,0
		c1.4-0.1,3.4,0.1,4-1.5c0.5-3.7,0.2-7.4,0.2-11c10.9-0.1,21.8,0,32.8,0c-0.7,17.7-6.1,35.2-16.7,49.5c-13.2,18.3-34,31-56.3,34.3
		c-18,3-36.8-0.4-52.9-8.9c-16.4-8.6-29.8-22.6-37.7-39.3C4.9,113.5,2.6,101.3,1.9,89z"/>
	<path class="st2" d="M58.2,88.6c1.1,0.5,2.3,1,3.4,1.5c-0.9,1.4-1.9,2.6-3.1,3.7C58.4,92,58.3,90.3,58.2,88.6z"/>
</g>
</svg>
