<svg xmlns="http://www.w3.org/2000/svg" xmlns:xlink="http://www.w3.org/1999/xlink" viewBox="0 0 962.58 481.29"><defs><style>.cls-1{fill:none;}.cls-2{clip-path:url(#clip-path);}.cls-3{fill:#006;}.cls-4{fill:#fff;}.cls-5{fill:#c00;}</style><clipPath id="clip-path"><rect class="cls-1" x="160.43" width="641.71" height="481.28"/></clipPath></defs><title>Aktiv 1</title><g id="Lag_2" data-name="Lag 2"><g id="Lag_1-2" data-name="Lag 1"><g class="cls-2"><path class="cls-3" d="M0,0H962.58V481.29H0Z"/><path class="cls-4" d="M0,0V53.81L855,481.29H962.58V427.48L107.62,0ZM962.58,0V53.81l-855,427.48H0V427.48L855,0Z"/><path class="cls-4" d="M401.07,0V481.29H561.5V0ZM0,160.43V320.86H962.58V160.43Z"/><path class="cls-5" d="M0,192.52v96.26H962.58V192.52ZM433.16,0V481.29h96.26V0ZM0,481.29,320.86,320.86H392.6L71.74,481.29ZM0,0,320.86,160.43H249.12L0,35.87ZM570,160.43,890.83,0h71.74L641.72,160.43H570Zm392.6,320.86L641.72,320.86h71.74L962.58,445.42Z"/></g></g></g></svg>