<?xml version="1.0" encoding="UTF-8"?>
<!-- Generator: Adobe Illustrator 15.1.0, SVG Export Plug-In . SVG Version: 6.00 Build 0)  -->
<!DOCTYPE SVG PUBLIC "-//W3C//DTD SVG 1.1//EN" "http://www.w3.org/Graphics/SVG/1.1/DTD/svg11.dtd">
<svg xmlns="http://www.w3.org/2000/svg" width="40px" height="40px" viewbox="0 0 40 40" fill="#007481">

	<g id="icon-right-arrow-circle">
		<path d="M20 40C9 40 0 31 0 20S9 0 20 0c11 0 20 9 20 20S31.1 40 20 40L20 40zM20 1.4C9.8 1.4 1.4 9.7 1.4 20c0 10.3 8.4 18.6 18.6 18.6 10.3 0 18.6-8.4 18.6-18.6C38.7 9.7 30.3 1.4 20 1.4L20 1.4zM20 1.4"/>
		<path d="M17.5 27c-0.2 0-0.3-0.1-0.5-0.2 -0.3-0.3-0.3-0.7 0-1l6.1-6.1L17 13.6c-0.3-0.3-0.3-0.7 0-1 0.3-0.3 0.7-0.3 1 0l6.6 6.6c0.3 0.3 0.3 0.7 0 1L18 26.8C17.9 27 17.7 27 17.5 27L17.5 27zM17.5 27"/>
	</g>

</svg>