<svg xmlns="http://www.w3.org/2000/svg" viewBox="0 0 703.42 703.42"><defs><style>.cls-1{fill:#cdcccb;}</style></defs><title>Aktiv 1</title><g id="Lag_2" data-name="Lag 2"><g id="Lag_1-2" data-name="Lag 1"><path class="cls-1" d="M351.71,0C157.47,0,0,157.47,0,351.71S157.47,703.42,351.71,703.42,703.42,546,703.42,351.71,546,0,351.71,0Zm40.11,546.05q-14.88,9-30.43,16.6A273.14,273.14,0,0,1,331,575.44q-14.88,5.19-25.93,5.19-11.78,0-19.71-4.84c-5.3-3.24-8-8.75-8-16.6a44,44,0,0,1,.7-7.95c.45-2.53.91-4.73,1.38-6.57L323.7,333.73q2.07-10.36-3.46-10.37a18.19,18.19,0,0,0-6.22,1.73q-4.16,1.73-9.34,3.8c-3.46,1.39-6.91,2.66-10.37,3.81a28.47,28.47,0,0,1-8.65,1.73q-6.23,0-9.33-6.23a56.9,56.9,0,0,1-4.5-11.76q13.13-6.9,31.47-15.9t36-16.25q17.64-7.28,32.16-12.45t20.75-5.19a20.6,20.6,0,0,1,10.37,2.77c3.22,1.84,4.84,5.08,4.84,9.68,0,1.38-.11,3.24-.34,5.53s-.59,4.61-1,6.92L361.74,509.4a56.24,56.24,0,0,0-2.08,12.44c0,4.16,2.08,6.23,6.23,6.23a27.12,27.12,0,0,0,10-2.42,106.76,106.76,0,0,0,11.42-5.53c3.69-2.08,7.13-3.91,10.37-5.54s5.75-2.42,7.61-2.42c3.69,0,6.57,2,8.64,5.88a33.27,33.27,0,0,1,3.81,11.41Q406.68,537.07,391.82,546.05ZM416,195.42q-15.57,13.84-37.69,13.83-18.68,0-29.74-9.34t-11.07-25.24q0-21.44,16.6-36.65a56.4,56.4,0,0,1,39.42-15.22q20,0,29.05,12.1t9,24.55Q431.59,181.61,416,195.42Z"/></g></g></svg>