<svg xmlns="http://www.w3.org/2000/svg" viewBox="0 0 298 298"><defs><style>.cls-1{fill:#fff;}</style></defs><title>Aktiv 5</title><g id="Lag_2" data-name="Lag 2"><g id="Lag_1-2" data-name="Lag 1"><path class="cls-1" d="M177.1,149.3c0,15.1-12.77,27.78-28,27.83a28.1,28.1,0,1,1,28-27.83Z"/><rect class="cls-1" x="183.56" y="87.77" width="26.75" height="26.74"/><path class="cls-1" d="M213.33,196.63c0,10.54-6.23,16.71-16.81,16.72q-47.58,0-95.16,0c-8.59,0-14.32-4.18-16.22-11.81a18,18,0,0,1-.46-4.34q0-31.34,0-62.67c0-.53.07-1,.13-1.84h23.36c-6.5,21.88-1.84,40.35,17.59,53.06,15.67,10.25,32.51,9.92,47.81-.82,18.34-12.86,22.78-31,16.27-52.2h23.39c0,.76.12,1.57.12,2.38Q213.35,165.87,213.33,196.63Z"/><path class="cls-1" d="M149,0A149,149,0,1,0,298,149,149,149,0,0,0,149,0Zm79.93,197.48c-.07,15.61-10,27.8-24.9,30.85a39,39,0,0,1-7.79.65c-15.82.06-31.64,0-47.46,0s-31.8.08-47.7,0c-13.35-.09-23.21-6-29.17-18.11A30.75,30.75,0,0,1,69.05,197c0-32-.06-64.06,0-96.08,0-15.84,10-28.21,25-31.23a37.41,37.41,0,0,1,7.33-.62q47.58-.06,95.16,0c16.28,0,28.7,9.88,31.78,25.23a32.73,32.73,0,0,1,.57,6.41C229,133,229.06,165.22,228.93,197.48Z"/></g></g></svg>