<?xml version="1.0" encoding="utf-8"?>
<!-- Generator: Adobe Illustrator 19.2.1, SVG Export Plug-In . SVG Version: 6.00 Build 0)  -->
<svg version="1.1" id="Layer_1" xmlns="http://www.w3.org/2000/svg" xmlns:xlink="http://www.w3.org/1999/xlink" x="0px" y="0px"
	 viewBox="0 0 176 176" style="enable-background:new 0 0 176 176;" xml:space="preserve">
<style type="text/css">
	.st0{fill:#59E31E;}
	.st1{fill:none;stroke:#59E31E;stroke-width:2;stroke-miterlimit:10;}
	.st2{fill:#CEF2CE;}
</style>
<g>
	<g>
		<path class="st0" d="M79.6,0h16.9c20.4,2.3,40,11.4,54.4,26.1c14.3,14.3,22.9,33.7,25.1,53.7v16.6c-2.1,17.6-8.9,34.6-20.4,48.2
			c-14.6,17.8-36.5,28.9-59.3,31.4H79.6c-19.2-2.2-37.9-10.3-52-23.7C12,137.8,2.3,117.5,0,96.3V79.5c2.3-20.2,11.1-39.6,25.6-53.9
			C39.9,11.1,59.4,2.2,79.6,0z M75,3.1C52.1,6.5,31,19.8,17.7,38.7C7.7,52.7,2.5,69.8,1.9,87c20.4,0,40.8,0,61.2,0
			c-0.3-2.4-0.5-4.8-0.4-7.2c7.4-0.3,15.1,2,20.5,7.2c1.5,0,3,0,4.5,0.1c0.2-14.9-0.4-29.8,0.3-44.6c1.3,0.8,2.3,2,2,3.6
			c0,13.7,0,27.3,0,41c1.5,0,3-0.1,4.5-0.1c4.4-4.4,10.6-6.4,16.7-7.2c1.2-0.3,2.4-0.1,3.4,0.6c1,2.1,0.1,4.5,0,6.7
			c19.8,0,39.6,0,59.5,0c-0.6-11.2-2.6-22.5-7.2-32.9c-7.9-18.3-22.3-33.8-40.2-42.7C110.9,3.3,92.5,0.2,75,3.1z M64.5,81.5
			c1.1,6.2,2.3,13.3,7.5,17.5c2.8,2.4,7.3,4.1,10.5,1.5c3-2.3,2.6-6.8,0.7-9.6C79.5,84.3,71.4,82.5,64.5,81.5z M97.9,86.8
			c-2.4,2.1-4.5,4.9-4.9,8.1c-0.4,2.9,1.4,6,4.3,6.6c3.8,0.9,7.5-1.5,10-4.1c3.9-4.4,5-10.4,5.8-15.9
			C107.9,82.4,102.2,83.3,97.9,86.8z M1.9,89c0.6,12.5,3.1,25.1,8.8,36.3c8.7,18.2,24.1,33.1,42.6,41.2c17.4,7.8,37.3,9.5,55.8,4.7
			c-1.5-1-3.1-2-4.6-3c-1.5,0.9-3,1.8-4.6,2.6c-2.1-2.2,2.3-3.6,3.6-4.9c0-2.4,0-4.7,0-7c-1.7-1.2-4.8-1.5-5.3-3.8
			c1.7-1.7,4.1,1.2,6,1.6c1.9-0.9,3.7-1.9,5.6-2.9c0.4-2.2-0.6-5.5,2.3-6.2c0.2,2.4,0.2,4.9,0.2,7.3c-2.3,1.3-4.5,2.6-6.7,4
			c0,2.4,0,4.8,0,7.2c2.2,1.4,4.4,2.9,6.5,4.3c18.3-5.3,34.7-17,45.7-32.5c10.3-14.1,15.6-31.5,16.3-48.9c-20,0-40.1-0.1-60.1,0
			c-1.6,5.6-4.6,11.2-10.2,13.7c-3.9,2.1-9.7,1.4-11.9-2.8c-2-3.5-0.7-7.7,1-11c-0.7,0-2.2,0-2.9,0.1c0,17.2-0.1,34.3,0.1,51.5
			c2.4,0.9,4.7,2.4,7.2,2.7c2-0.7,3.9-1.8,6-2.6c-0.4,2.7-2.9,3.8-4.9,5.1c-0.1,2.1-0.2,4.3-0.4,6.4c-0.5,0-1.4,0.1-1.9,0.1
			c-0.2-2.3-0.2-4.6-0.2-6.9c-2.3-0.9-4.5-2-6.9-2.6c-2.3,0.6-4.4,1.8-6.5,2.9c-0.5,2.9,1.5,7.6-1.6,9.1c-0.7-3-0.4-6.1-0.3-9.2
			c-2.6-1.8-6.6-2.5-7.3-6c2.9,0.8,5.6,2.3,8.1,3.9c2-0.9,4-1.8,5.9-2.7c0.8-17.2,0.1-34.5,0.4-51.7c-0.7-0.1-2.1-0.1-2.8-0.2
			c1.8,3.8,3.1,8.6,0.1,12.2c-3.4,4-9.6,3.2-13.5,0.3c-4.3-2.8-6.4-7.7-7.9-12.4C43.1,89,22.5,88.9,1.9,89z"/>
	</g>
	<g>
		<path class="st0" d="M87.4,12.3c2-1.8,3.9,0.7,5,2.2c3.3,4.9,6.3,10.5,5.6,16.6c-0.2,4.6-2.8,9.6-7.6,10.5c-4.5,1-8.7-2.5-9.9-6.7
			C77.9,26.8,81.9,18.2,87.4,12.3z M88.6,13.6c-2.5,3.9-5.4,7.8-6.5,12.4c-0.8,3.7-0.5,8,1.9,11c1.6,2.1,4.7,3.5,7.2,2.1
			c4-2,5.1-7.1,4.8-11.2C95.2,22.5,92.2,17.6,88.6,13.6z"/>
	</g>
	<g>
		<path class="st0" d="M64.4,35.4c5,0,9.9,1.5,14.3,3.8c5.3,3,9.8,9.5,7.4,15.7c-2,5-8.8,5.7-13,3.1c-6.7-3.5-9.3-11.2-10.4-18.2
			C62.5,38.3,62.2,35.6,64.4,35.4z M64.5,37.2C65.4,44.9,67.9,54.1,76,57c4.7,2.3,10.4-2.7,8.5-7.6C81.9,40.9,72.3,38.2,64.5,37.2z"
			/>
	</g>
	<g>
		<path class="st0" d="M112.3,35.3c1.4-0.2,3.1,1.1,2.8,2.5c-0.5,5.8-2.1,11.8-5.8,16.4c-3,3.4-7.6,6.1-12.2,5.1
			c-3.4-0.6-6.2-3.8-6.1-7.3c-0.4-5,3-9.4,6.9-12.2C102.2,37.2,107.3,35.9,112.3,35.3z M96.2,44.2C93.7,47,91.7,51.5,94,55
			c2.3,3.6,7.6,2.9,10.6,0.5c6.1-3.9,7.6-11.6,8.6-18.3C107.2,38.2,100.4,39.4,96.2,44.2z"/>
	</g>
	<g>
		<path class="st0" d="M62.7,57.7c5.3-0.6,10.5,1,15.3,3.2c4.8,2.5,8.9,7.4,8.9,13c0.1,3.9-3.2,7.4-7.1,7.8
			c-3.3,0.3-6.6-1.2-9.1-3.2C64.7,73.5,62.6,65.2,62.7,57.7z M64.5,59.4c0.9,6.1,2.2,12.9,7.1,17.1c2.8,2.6,7.4,4.6,10.8,1.9
			c3-2.3,2.8-6.7,0.8-9.6C79.6,62.2,71.4,60.4,64.5,59.4z"/>
	</g>
	<g>
		<path class="st0" d="M107.2,58.3c2.5-0.4,7.7-2.3,7.9,1.6c-0.4,5.6-2,11.3-5.3,15.8c-3.3,4.1-9.3,7.7-14.6,5.1
			c-4.7-2.2-5.3-8.5-2.9-12.6C95.1,62.6,101.2,59.6,107.2,58.3z M94.9,68c-2.2,2.8-3.1,7.6,0.1,10.1c2.9,2.8,7.3,1.3,10.2-0.9
			c5.6-4.1,7.1-11.4,8-17.9C106.6,60.4,98.9,61.9,94.9,68z"/>
	</g>
	<g>
		<path class="st0" d="M64.1,102.2c8.2,0,17.7,3.2,21.5,11.1c2,3.7,1.6,8.9-1.9,11.5c-3.7,2.6-8.9,1.6-12.3-1.1
			c-5.7-4-7.7-11.3-8.7-17.8C62.5,104.7,62.5,102.4,64.1,102.2z M64.5,103.9c0.9,6.8,2.6,14.7,8.9,18.6c3,2.2,8,2.7,10.3-0.8
			c2.3-3.3,0.4-7.6-1.9-10.3C77.6,106.2,70.7,105,64.5,103.9z"/>
	</g>
	<g>
		<path class="st0" d="M110.2,102.3c1.4-0.2,2.9-0.5,4.2,0.2c1.3,1.6,0.4,3.8,0.3,5.7c-1.2,6.2-3.6,12.7-9.2,16.1
			c-4,2.8-10.5,3-13.3-1.5c-2.5-4-1-9.4,2-12.8C98,105.2,104.3,103.4,110.2,102.3z M96.6,110.6c-2.6,2.7-4.9,7-2.8,10.7
			c1.9,3.7,6.9,3.7,10,1.6c6.7-3.7,8.5-11.9,9.5-18.9C107.3,105,100.8,106,96.6,110.6z"/>
	</g>
	<path class="st0" d="M47.1,124.2c2.2,1.4,1.6,4.2,2,6.5c2.3,0.9,4.6,2.2,7.1,2.7c2-0.8,4-1.8,6-2.4c-0.7,2.5-3.1,3.7-5.1,5.1
		c-0.5,2,1.3,7-2.2,6.2c-0.2-2.2-0.2-4.5-0.2-6.8c-2.2-0.9-4.3-2-6.7-2.6c-2.5,0.4-4.6,2-6.8,3.2c0.1,3,0,5.9-0.1,8.9
		c-0.5-0.2-1.4-0.7-1.9-0.9c0-2.8,0-5.5,0.1-8.3c-2.7-1.6-6-2.6-7.5-5.6c3.3,0.2,6,2,8.7,3.6c2.1-1,4.1-2.2,6.2-3.2
		C46.7,128.4,46.8,126.3,47.1,124.2z"/>
	<path class="st0" d="M55,132.1c0-2.9,3.8-4.2,6.2-3.6C59.5,130.1,57.6,132.9,55,132.1z"/>
	<path class="st0" d="M30,133.6c2.7,0.2,7.4,0.9,7.8,4.3C34.8,138.3,31.7,136,30,133.6z"/>
	<path class="st0" d="M68.8,143.7c0.3-2.1-0.6-5,1.9-6.1c0.2,2.5,0.3,4.9,0.3,7.4c-2.3,1.4-4.6,2.7-6.9,4.1c0.1,2.4,0.1,4.9,0.2,7.3
		c2.4,1.7,5.8,2.6,6.8,5.6c-3.1,0.4-5.4-2.3-8-3.6c-1.7,1-3.5,1.9-5.3,2.8c-0.2-2.8,2.5-3.8,4.3-5.2c0-2.3,0-4.7-0.1-7
		c-2.2-1.1-4.6-2.1-5.8-4.3c2.4,0,4.7,1,6.8,2.1C65.1,145.8,66.9,144.8,68.8,143.7z"/>
	<path class="st0" d="M96.2,141.9c-0.4-2.2,4.2-5.2,5.8-2.9C100.4,140.3,98.5,142.8,96.2,141.9z"/>
	<path class="st0" d="M72.4,143.2c2.8,0.8,6.4,1.8,6.9,5.1c-2.6-0.8-5.3-1.8-7.5-3.5C72,144.4,72.3,143.6,72.4,143.2z"/>
	<path class="st0" d="M113.7,154.9c0.4-2.4-1.3-6.6,2.1-7.1c0.1,1.9,0.2,3.8,0.3,5.8c1.1,1.4,4.5,2.6,3,4.8
		C117.2,157.4,115.4,156.1,113.7,154.9z"/>
	<path class="st0" d="M41.3,148.6c3.6,1.9,1.6,6.6,1.7,9.8C39.2,156.8,41.5,151.8,41.3,148.6z"/>
	<path class="st0" d="M83.9,168.5c-2.6-2.5-2.7-7.9,0.1-10.3C84.7,161.6,84.8,165.2,83.9,168.5z"/>
</g>
<circle class="st1" cx="88.1" cy="88" r="87"/>
<g>
	<g>
		<path class="st2" d="M75,3.1c17.5-2.9,35.9,0.2,51.7,8.3c17.9,8.9,32.3,24.4,40.2,42.7c4.6,10.3,6.6,21.6,7.2,32.9
			c-19.8,0-39.6,0-59.5,0c0.1-2.2,1-4.6,0-6.7c-1-0.7-2.2-0.9-3.4-0.6c-6.1,0.8-12.2,2.8-16.7,7.2c-1.5,0-3,0.1-4.5,0.1
			c0-13.7,0-27.3,0-41c0.4-1.7-0.6-2.8-2-3.6c-0.7,14.8-0.2,29.7-0.3,44.6c-1.5,0-3,0-4.5-0.1c-5.4-5.1-13.1-7.5-20.5-7.2
			c-0.1,2.4,0.1,4.8,0.4,7.2c-20.4,0-40.8,0-61.2,0c0.6-17.2,5.8-34.3,15.8-48.3C31,19.8,52.1,6.5,75,3.1z M87.4,12.3
			c-5.5,5.9-9.5,14.5-6.9,22.6c1.2,4.2,5.4,7.7,9.9,6.7c4.8-1,7.5-6,7.6-10.5c0.7-6.1-2.4-11.7-5.6-16.6
			C91.3,13,89.4,10.6,87.4,12.3z M64.4,35.4c-2.2,0.2-1.9,2.9-1.7,4.5c1.1,7,3.7,14.7,10.4,18.2c4.2,2.6,11,1.9,13-3.1
			c2.4-6.2-2.1-12.8-7.4-15.7C74.3,37,69.4,35.4,64.4,35.4z M112.3,35.3c-5,0.5-10.1,1.9-14.5,4.6c-3.9,2.7-7.3,7.2-6.9,12.2
			c0,3.5,2.7,6.7,6.1,7.3c4.7,0.9,9.2-1.7,12.2-5.1c3.7-4.6,5.3-10.6,5.8-16.4C115.4,36.4,113.7,35.2,112.3,35.3z M62.7,57.7
			c-0.1,7.5,2,15.8,7.9,20.8c2.5,2.1,5.8,3.6,9.1,3.2c3.9-0.4,7.2-3.9,7.1-7.8c0-5.6-4-10.5-8.9-13C73.2,58.8,68,57.1,62.7,57.7z
			 M107.2,58.3c-6,1.3-12.1,4.3-14.9,10c-2.4,4.1-1.8,10.4,2.9,12.6c5.3,2.6,11.3-1,14.6-5.1c3.3-4.6,4.9-10.3,5.3-15.8
			C114.9,56,109.7,57.9,107.2,58.3z"/>
	</g>
	<path class="st2" d="M88.6,13.6c3.6,4,6.6,8.9,7.3,14.3c0.4,4.1-0.7,9.2-4.8,11.2c-2.5,1.4-5.5,0-7.2-2.1c-2.4-3.1-2.6-7.3-1.9-11
		C83.2,21.4,86.1,17.5,88.6,13.6z"/>
	<path class="st2" d="M64.5,37.2c7.8,1,17.4,3.7,20,12.2c1.9,4.9-3.8,9.9-8.5,7.6C67.9,54.1,65.4,44.9,64.5,37.2z"/>
	<path class="st2" d="M96.2,44.2c4.2-4.9,11-6,17-7c-1,6.7-2.5,14.4-8.6,18.3c-3,2.3-8.2,3-10.6-0.5C91.7,51.5,93.7,47,96.2,44.2z"
		/>
	<path class="st2" d="M64.5,59.4c6.9,1,15.1,2.8,18.7,9.4c2,2.9,2.2,7.3-0.8,9.6c-3.4,2.7-8,0.6-10.8-1.9
		C66.7,72.3,65.4,65.5,64.5,59.4z"/>
	<path class="st2" d="M94.9,68c4-6,11.6-7.6,18.2-8.6c-0.9,6.5-2.4,13.8-8,17.9c-2.8,2.2-7.2,3.6-10.2,0.9
		C91.9,75.6,92.8,70.8,94.9,68z"/>
	<path class="st2" d="M64.5,81.5c6.9,1,15,2.8,18.8,9.4c2,2.9,2.3,7.3-0.7,9.6c-3.2,2.6-7.7,0.8-10.5-1.5
		C66.7,94.8,65.5,87.7,64.5,81.5z"/>
	<path class="st2" d="M97.9,86.8c4.3-3.5,10-4.4,15.3-5.3c-0.8,5.6-2,11.6-5.8,15.9c-2.6,2.6-6.2,5-10,4.1c-2.9-0.7-4.8-3.8-4.3-6.6
		C93.4,91.7,95.5,88.9,97.9,86.8z"/>
	<g>
		<path class="st2" d="M1.9,89c20.6-0.1,41.2,0,61.8,0c1.5,4.7,3.6,9.6,7.9,12.4c3.8,2.9,10.1,3.7,13.5-0.3
			c2.9-3.5,1.7-8.4-0.1-12.2c0.7,0,2.1,0.1,2.8,0.2c-0.2,17.2,0.4,34.5-0.4,51.7c-2,0.9-4,1.8-5.9,2.7c-2.6-1.6-5.2-3.1-8.1-3.9
			c0.6,3.6,4.7,4.2,7.3,6c-0.1,3-0.4,6.2,0.3,9.2c3.2-1.5,1.1-6.3,1.6-9.1c2.1-1.1,4.2-2.4,6.5-2.9c2.4,0.5,4.6,1.6,6.9,2.6
			c0,2.3,0,4.6,0.2,6.9c0.5,0,1.4-0.1,1.9-0.1c0.3-2.1,0.3-4.3,0.4-6.4c2-1.3,4.5-2.4,4.9-5.1c-2.1,0.7-3.9,1.8-6,2.6
			c-2.6-0.3-4.8-1.9-7.2-2.7c-0.2-17.2,0-34.3-0.1-51.5c0.7,0,2.2,0,2.9-0.1c-1.7,3.3-3,7.5-1,11c2.2,4.2,8,4.9,11.9,2.8
			c5.5-2.5,8.6-8.1,10.2-13.7c20-0.1,40.1-0.1,60.1,0c-0.6,17.4-5.9,34.8-16.3,48.9c-11,15.5-27.4,27.2-45.7,32.5
			c-2.2-1.4-4.4-2.8-6.5-4.3c0-2.4,0-4.8,0-7.2c2.2-1.4,4.4-2.7,6.7-4c0-2.4,0-4.9-0.2-7.3c-2.9,0.7-1.8,4-2.3,6.2
			c-1.8,1-3.7,1.9-5.6,2.9c-1.9-0.4-4.3-3.2-6-1.6c0.5,2.3,3.6,2.6,5.3,3.8c0,2.3,0,4.7,0,7c-1.3,1.3-5.7,2.7-3.6,4.9
			c1.6-0.8,3.1-1.7,4.6-2.6c1.5,1,3.1,2,4.6,3c-18.4,4.8-38.4,3-55.8-4.7c-18.5-8.1-33.9-23-42.6-41.2C5.1,114.1,2.5,101.5,1.9,89z
			 M64.1,102.2c-1.6,0.2-1.7,2.4-1.5,3.7c1,6.6,3,13.8,8.7,17.8c3.4,2.6,8.6,3.7,12.3,1.1c3.6-2.6,3.9-7.8,1.9-11.5
			C81.8,105.4,72.3,102.3,64.1,102.2z M110.2,102.3c-5.9,1.1-12.2,2.9-16.1,7.8c-3,3.4-4.4,8.7-2,12.8c2.8,4.5,9.3,4.2,13.3,1.5
			c5.6-3.4,8.1-10,9.2-16.1c0.2-1.9,1.1-4-0.3-5.7C113.1,101.8,111.6,102.1,110.2,102.3z M47.1,124.2c-0.2,2.1-0.4,4.2-0.5,6.3
			c-2.1,1.1-4.1,2.2-6.2,3.2c-2.7-1.6-5.4-3.5-8.7-3.6c1.5,3,4.9,4,7.5,5.6c0,2.8,0,5.5-0.1,8.3c0.5,0.2,1.4,0.7,1.9,0.9
			c0.2-2.9,0.2-5.9,0.1-8.9c2.2-1.1,4.3-2.8,6.8-3.2c2.3,0.6,4.5,1.7,6.7,2.6c0,2.3,0,4.5,0.2,6.8c3.5,0.8,1.6-4.2,2.2-6.2
			c2-1.4,4.4-2.6,5.1-5.1c-2.1,0.6-4,1.6-6,2.4c-2.5-0.5-4.7-1.8-7.1-2.7C48.7,128.4,49.3,125.6,47.1,124.2z M55,132.1
			c2.7,0.7,4.5-2,6.2-3.6C58.7,127.9,54.9,129.3,55,132.1z M30,133.6c1.7,2.4,4.8,4.7,7.8,4.3C37.5,134.5,32.8,133.8,30,133.6z
			 M68.8,143.7c-1.9,1.1-3.8,2.1-5.7,3.2c-2.1-1.1-4.3-2.1-6.8-2.1c1.2,2.3,3.7,3.2,5.8,4.3c0,2.3,0.1,4.7,0.1,7
			c-1.8,1.4-4.5,2.4-4.3,5.2c1.8-0.8,3.5-1.8,5.3-2.8c2.6,1.2,5,3.9,8,3.6c-1-3-4.5-3.9-6.8-5.6c-0.1-2.4-0.1-4.9-0.2-7.3
			c2.3-1.4,4.6-2.8,6.9-4.1c0-2.5-0.1-4.9-0.3-7.4C68.3,138.7,69.2,141.6,68.8,143.7z M96.2,141.9c2.3,0.9,4.2-1.6,5.8-2.9
			C100.4,136.7,95.8,139.6,96.2,141.9z M72.4,143.2c-0.1,0.4-0.4,1.2-0.5,1.6c2.2,1.7,4.8,2.7,7.5,3.5C78.8,145,75.2,144,72.4,143.2
			z M113.7,154.9c1.7,1.2,3.4,2.5,5.4,3.4c1.5-2.2-1.9-3.4-3-4.8c-0.1-1.9-0.2-3.8-0.3-5.8C112.4,148.3,114.2,152.5,113.7,154.9z
			 M41.3,148.6c0.3,3.1-2,8.2,1.7,9.8C42.8,155.2,44.9,150.5,41.3,148.6z M83.9,168.5c0.9-3.4,0.8-6.9,0.1-10.3
			C81.2,160.7,81.3,166,83.9,168.5z"/>
	</g>
	<path class="st2" d="M64.5,103.9c6.2,1.1,13.1,2.3,17.3,7.4c2.3,2.7,4.2,7,1.9,10.3c-2.3,3.5-7.3,3-10.3,0.8
		C67.1,118.6,65.4,110.7,64.5,103.9z"/>
	<path class="st2" d="M96.6,110.6c4.3-4.6,10.8-5.6,16.6-6.7c-1,7-2.8,15.2-9.5,18.9c-3.1,2.1-8.1,2.1-10-1.6
		C91.7,117.6,94,113.3,96.6,110.6z"/>
</g>
</svg>
