<svg xmlns="http://www.w3.org/2000/svg" viewBox="0 0 298 298"><defs><style>.cls-1{fill:#fff;}</style></defs><title>Aktiv 2</title><g id="Lag_2" data-name="Lag 2"><g id="Lag_1-2" data-name="Lag 1"><path class="cls-1" d="M149,0A149,149,0,1,0,298,149,149,149,0,0,0,149,0ZM104.91,233.15H70V114.38h34.91ZM87.29,98.83c-11.4,0-20.64-9.82-20.64-21.92S75.89,55,87.29,55s20.64,9.81,20.64,21.91S98.69,98.83,87.29,98.83ZM235.72,233.15H201V170.81c0-17.1-6.17-26.65-19-26.65-14,0-21.27,10-21.27,26.65v62.34H127.22V114.38h33.49v16s10.06-19.62,34-19.62,41,15.38,41,47.19Z"/></g></g></svg>