<?xml version="1.0" encoding="utf-8"?>
<!-- Generator: Adobe Illustrator 19.2.1, SVG Export Plug-In . SVG Version: 6.00 Build 0)  -->
<svg version="1.1" id="Layer_1" xmlns="http://www.w3.org/2000/svg" xmlns:xlink="http://www.w3.org/1999/xlink" x="0px" y="0px"
	 viewBox="0 0 176 176" style="enable-background:new 0 0 176 176;" xml:space="preserve">
<style type="text/css">
	.st0{fill:#6B3C96;}
	.st1{fill:none;stroke:#6B3C96;stroke-width:2;stroke-miterlimit:10;}
	.st2{fill:#E4D9ED;}
</style>
<g>
	<g>
		<path class="st0" d="M80.6,0h15.6c17.2,1.9,34,8.4,47.3,19.5C162.1,34.4,174,57.1,176,80.9V96c-1.9,16.5-7.8,32.7-18.2,45.8
			c-14.8,19.6-38.2,32.1-62.6,34.2H80c-16.5-1.9-32.7-7.8-45.8-18.2C14.7,143,2.1,119.8,0,95.4V79.9C2.1,59.6,11,40,25.6,25.6
			C40.1,10.9,60,1.9,80.6,0z M78.4,2.6c-16.2,1.7-31.7,8.3-44.3,18.6C18.5,33.8,7.4,52,3.6,71.7C-3,103.5,10.8,138.1,37,157
			c15.4,11.5,34.8,17.4,54,16.9c16.2-0.7,32.3-5.9,45.6-15.2c19.6-13.3,33.2-35.2,36.4-58.7c5.1-32.2-10.7-66.3-38.1-83.9
			C118.4,5.3,98.1,0.2,78.4,2.6z"/>
	</g>
	<path class="st0" d="M86.2,32.1c0.4-0.5,1.3-1.4,1.8-1.8c0.4,0.5,1.3,1.4,1.8,1.8c0,18.3,0,36.6,0,55c0.3,1.7-0.8,2.9-1.8,4.1
		c-2.5-2.1-1.7-5.4-1.8-8.2C86.2,66,86.2,49.1,86.2,32.1z"/>
	<path class="st0" d="M51.2,52.2c0.6-0.1,1.7-0.3,2.3-0.4c0,0.7,0,2.1,0.1,2.8C43,65.1,37.6,80.5,39.7,95.2
		c1.5,12.3,8,23.7,17.6,31.5c10.6,8.8,25.1,12.7,38.7,10.3c16.5-2.6,31-14.4,37.1-29.9c6.6-15.8,3.8-35-7-48.3
		c-1.6-2.2-4.3-4-3.8-7.1c1.5,0.1,3.1,0.5,4,1.8c8.8,9.5,14,22.4,13.7,35.4c0.3,13.7-5.4,27.3-15.2,36.9
		c-9.8,10.1-23.9,15.7-37.9,15.2c-18.2,0.1-35.7-10.6-44.5-26.4C31.2,95,34.5,67.8,51.2,52.2z"/>
	<circle class="st1" cx="88.1" cy="88" r="87"/>
</g>
<g>
	<g>
		<path class="st2" d="M78.4,2.6c19.6-2.4,40,2.7,56.5,13.5c27.4,17.6,43.1,51.6,38.1,83.9c-3.2,23.5-16.8,45.3-36.4,58.7
			c-13.3,9.4-29.4,14.5-45.6,15.2c-19.2,0.6-38.6-5.4-54-16.9C10.8,138.1-3,103.5,3.6,71.7C7.4,52,18.5,33.8,34.1,21.2
			C46.7,10.9,62.3,4.4,78.4,2.6z M86.2,32.1c0,16.9,0,33.9,0,50.8c0.1,2.8-0.7,6.2,1.8,8.2c1-1.2,2.1-2.4,1.8-4.1
			c0-18.3,0-36.6,0-55c-0.4-0.5-1.3-1.4-1.8-1.8C87.6,30.8,86.7,31.7,86.2,32.1z M51.2,52.2c-16.7,15.6-20,42.8-8.7,62.4
			c8.8,15.8,26.3,26.6,44.5,26.4c14,0.5,28.1-5.1,37.9-15.2c9.8-9.6,15.5-23.2,15.2-36.9c0.3-13-4.9-25.9-13.7-35.4
			c-0.9-1.3-2.5-1.7-4-1.8c-0.5,3.1,2.1,4.9,3.8,7.1c10.9,13.3,13.6,32.5,7,48.3C127,122.6,112.5,134.4,96,137
			c-13.6,2.4-28.1-1.5-38.7-10.3c-9.6-7.8-16.1-19.2-17.6-31.5C37.6,80.5,43,65.1,53.5,54.6c0-0.7,0-2.1-0.1-2.8
			C52.9,51.9,51.7,52.1,51.2,52.2z"/>
	</g>
</g>
</svg>
