<?xml version="1.0" encoding="utf-8"?>
<!-- Generator: Adobe Illustrator 19.2.1, SVG Export Plug-In . SVG Version: 6.00 Build 0)  -->
<svg version="1.1" id="Layer_1" xmlns="http://www.w3.org/2000/svg" xmlns:xlink="http://www.w3.org/1999/xlink" x="0px" y="0px"
	 viewBox="0 0 191 176" style="enable-background:new 0 0 191 176;" xml:space="preserve">
<style type="text/css">
	.st0{fill:#FF951E;}
	.st1{fill:#F7E8D6;}
</style>
<g>
	<path class="st0" d="M81.2,0h14.7c17,1.4,33.7,7.7,47,18.4c-1,1.2-2.1,2-3.3,0.6C126.8,9.6,111.3,3.7,95.4,2.5
		C77.9,1.1,60,5.3,44.8,14.3c-7.1,3.6-12.7,9.2-18.4,14.7c-7.4,8.6-14.3,18-18.1,28.8c-6.9,18-7.3,38.3-1.5,56.6
		c-0.6,0.2-1.8,0.6-2.3,0.8c-2.3-6.7-3.4-13.7-4.1-20.8V81.6C1.9,65,7.6,48.6,18,35.5c4.9-7.3,11.5-13.2,18.2-18.8
		C49.4,7.4,65,1.4,81.2,0z"/>
	<path class="st0" d="M149.4,22.6c14-1.4,28.1-3,42.1-4.1v0.4c-2.7,20.7-4.3,41.6-6.6,62.4c-3.1-2.9-6-5.9-8.9-8.9
		c-3-2.9-5.9-5.9-8.9-8.8c-17.5,17.4-34.9,34.9-52.4,52.3C104.3,105.5,93.9,95,83.5,84.7C70.8,97.4,58,110.1,45.3,122.9
		c10,12.3,25.3,20.3,41.2,20.7c15.2,0.7,30.6-5.4,41.3-16.2c9.7-9.5,15.5-22.7,16.4-36.2c0.6,0.1,1.8,0.3,2.3,0.4
		c-0.7,16.7-9.4,32.7-22.7,42.8c-10.3,7.9-23.3,12.2-36.3,11.8c-17.8,0-35.1-9.1-45.7-23.4c13.8-14,27.8-27.8,41.6-41.7
		c10.5,10.4,20.8,20.9,31.3,31.2c17.5-17.4,34.8-34.9,52.4-52.3c5.3,5.2,10.5,10.6,15.8,15.8c1.9-18.1,3.7-36.3,5.5-54.4
		c-18.1,1.9-36.2,3.6-54.4,5.5c5.1,5.4,10.5,10.5,15.7,15.8c-11.6,11.8-23.4,23.4-35.1,35.1c-10.4-10.4-20.8-20.8-31.2-31.2
		C58.7,71.2,33.9,95.9,9.2,120.8c6.6,15.1,17,28.6,30.6,37.9c17.7,12.4,40.3,17.6,61.7,14.2c33.6-4.7,62.7-31.4,70.5-64.4
		c2.6-10,3-20.5,2.1-30.7c0.6-0.2,1.7-0.6,2.3-0.7c2.7,20.5-2.2,41.9-13.6,59.1c-14.1,21.9-38.3,36.8-64.1,39.8H77.8
		c-18.9-2.6-37.3-10.9-50.8-24.6c-9.1-8.7-16.1-19.6-20.7-31.4c25.8-25.7,51.4-51.5,77.1-77.3c10.5,10.4,20.9,20.9,31.4,31.3
		c10.5-10.5,21-21,31.5-31.5c-5.9-6-11.9-11.8-17.7-17.8C135.4,23.9,142.4,23.3,149.4,22.6z"/>
</g>
<g>
	<path class="st1" d="M44.8,14.3c15.2-9,33-13.2,50.6-11.8c15.9,1.2,31.3,7,44.2,16.5c1.2,1.4,2.3,0.6,3.3-0.6
		c1.9,1.7,4,3.4,6.5,4.3c-7,0.7-13.9,1.3-20.9,2.2c5.9,6,11.8,11.8,17.7,17.8c-10.5,10.5-21,21-31.5,31.5
		c-10.5-10.4-20.9-20.9-31.4-31.3C57.7,68.6,32.1,94.4,6.3,120.1c-0.6-1.6-1.2-3.3-1.7-4.9c0.6-0.2,1.8-0.6,2.3-0.8
		C1.1,96.1,1.5,75.8,8.4,57.8C12.2,47,19.1,37.6,26.5,29C32.1,23.5,37.8,17.9,44.8,14.3z"/>
	<path class="st1" d="M134.1,26.7c18.1-1.9,36.2-3.6,54.4-5.5c-1.8,18.1-3.6,36.3-5.5,54.4c-5.3-5.2-10.5-10.5-15.8-15.8
		c-17.5,17.3-34.9,34.9-52.4,52.3c-10.5-10.4-20.8-20.8-31.3-31.2c-13.9,13.9-27.9,27.7-41.6,41.7c10.5,14.3,27.8,23.4,45.7,23.4
		c13,0.4,26-3.9,36.3-11.8c13.3-10,22-26.1,22.7-42.8c-0.6-0.1-1.8-0.3-2.3-0.4c-0.9,13.5-6.7,26.7-16.4,36.2
		c-10.7,10.8-26.1,16.9-41.3,16.2c-15.9-0.4-31.2-8.3-41.2-20.7C58,110.1,70.8,97.4,83.5,84.7c10.5,10.3,20.8,20.8,31.3,31.2
		c17.5-17.4,34.9-34.9,52.4-52.3c2.9,2.9,5.9,5.9,8.9,8.8c0.1,1.6,0.2,3.2,0.3,4.8c-0.6,0.2-1.7,0.6-2.3,0.7
		c0.9,10.3,0.5,20.7-2.1,30.7c-7.8,33-36.9,59.6-70.5,64.4c-21.4,3.3-44-1.8-61.7-14.2c-13.6-9.3-24.1-22.8-30.6-37.9
		c24.7-24.8,49.5-49.6,74.3-74.4c10.4,10.4,20.8,20.8,31.2,31.2c11.7-11.7,23.4-23.4,35.1-35.1C144.6,37.2,139.3,32,134.1,26.7z"/>
</g>
</svg>
