<svg xmlns="http://www.w3.org/2000/svg" viewBox="0 0 298 298"><defs><style>.cls-1{fill:#fff;}</style></defs><title>Aktiv 6</title><g id="Lag_2" data-name="Lag 2"><g id="Lag_1-2" data-name="Lag 1"><path class="cls-1" d="M149,0A149,149,0,1,0,298,149,149,149,0,0,0,149,0Zm94.28,201.64v0c-1.62,2.23-4,3-5.56,3.72a.27.27,0,0,0-.17,0c-4.25,1.49-8.71,3.29-13.7,3.86h-.31a5.1,5.1,0,0,0-3.55,1.09c-1.7,1.93-2.27,5-3.32,8.49a1.84,1.84,0,0,1-.09.25c0-.06,0,.18-.17.58a2.65,2.65,0,0,1-.62,1.23,3.2,3.2,0,0,1-2,1.09,1.1,1.1,0,0,1-.57,0,108,108,0,0,0-17.24-.87h-.09c-3.11.22-6,.17-8.18,1h0c-7,3.06-13.26,7.92-20.39,12,0,0-.09,0-.13.09a24.49,24.49,0,0,1-10.51,3.59h-.09a111.36,111.36,0,0,1-13.35.3h0a24.84,24.84,0,0,1-8.45-1.91,49.11,49.11,0,0,1-7.31-3.86v-.05c-3.39-2-6.6-4.25-9.82-6.17a38.66,38.66,0,0,0-9.92-4.5c-6.61-1.62-13.83-.53-21,.74h-.26a4.7,4.7,0,0,1-3.19.26,2.5,2.5,0,0,1-1.8-1.62c-.87-2.93-1.22-5.69-2-8-.53-1.31-.79-2.1-.88-2.28-2.32-1-5.2-1.4-8.31-2.06,0,0,0,0,0,0-4.29-1.09-9-2.14-13.3-4.64,0,0-.09,0-.13,0a6.83,6.83,0,0,1-2.19-1.71,3.92,3.92,0,0,1-.57-4.59c1.57-2.37,4.07-2.58,5.12-3a.84.84,0,0,1,.22-.09,47.2,47.2,0,0,0,14.4-6.56,61,61,0,0,0,19.61-22.46v0c1.66-3.37,3-6.87,2.27-9.89a6.32,6.32,0,0,0-2-3.2A13.64,13.64,0,0,0,89.83,150c-4.07-1.57-8.71-2.8-12.92-5.6,0,0-.08-.09-.13-.09-.48-.39-1.27-.87-2.14-1.62a5.83,5.83,0,0,1-2.1-3.41s0,0,0,0a2,2,0,0,1,0-.49,6.29,6.29,0,0,1,3.37-5s0,0,.09-.09,0,0,.09,0a7.52,7.52,0,0,1,6.13-1.4.16.16,0,0,0,.13,0A58.66,58.66,0,0,0,88.6,134h0a22.69,22.69,0,0,0,8.23.22,1.32,1.32,0,0,0,.09-.35c.14-1.45.2-2.93.2-4.42,0-4-.4-8.09-.59-12.3-.44-8.23-.75-17.11,2.58-25.43v0a53,53,0,0,1,16-20.84c9.33-7.31,21.28-10.33,32.79-10.41,2.84,0,5.69.08,8.62.35a49.36,49.36,0,0,1,24,8.53c9.71,6.83,17.37,17.12,19.6,29.07v.08c1,7.09.75,14.1.53,20.92v0c0,4.51-.44,8.84-.26,13h0c.09.7.09,1.27.13,1.53a14.15,14.15,0,0,0,7,.18.16.16,0,0,1,.14,0,43.46,43.46,0,0,0,6.12-1.79h0a8.36,8.36,0,0,1,6.91.61h0a9.33,9.33,0,0,1,4,3.85v0a4.29,4.29,0,0,1,.22,3,3.18,3.18,0,0,1-.26.79,7,7,0,0,1-1.66,2.14c-.05,0-.05,0-.09,0-3.46,3.07-7.66,4.6-11.56,6h0c-3.46,1.27-6.74,2.89-8.54,5.43a0,0,0,0,1,0,0c-1.14,1.53-1.09,4.07-.31,6.35v.08a57.12,57.12,0,0,0,8.49,14.84c6.4,8.23,14.93,15,24.82,18.08,0,0,0,0,.09,0,.72.27,1.66.45,2.7.75a12.63,12.63,0,0,1,3.34,1.44h0a.92.92,0,0,0,.18.13v0a4,4,0,0,1,1.9,3.39A3.79,3.79,0,0,1,243.28,201.64Z"/></g></g></svg>