<svg xmlns="http://www.w3.org/2000/svg" viewBox="0 0 298 298"><defs><style>.cls-1{fill:#fff;}</style></defs><title>Aktiv 3</title><g id="Lag_2" data-name="Lag 2"><g id="Lag_1-2" data-name="Lag 1"><path class="cls-1" d="M142.5,81.08c-2.92,0-4.33,2.27-4.33,5.34v26c0,3,1.67,5.3,4.54,5.3s4.35-2.25,4.35-5.3v-26C147.06,83.29,145.69,81.08,142.5,81.08Zm0,0c-2.92,0-4.33,2.27-4.33,5.34v26c0,3,1.67,5.3,4.54,5.3s4.35-2.25,4.35-5.3v-26C147.06,83.29,145.69,81.08,142.5,81.08ZM81.23,157.45v10.48H92.78v61.73h11.15V167.93h11.54V157.45Zm52.46,18.95v40.42c-1.2,1.52-3.89,4-5.82,4-2.11,0-2.63-1.45-2.63-3.59V176.4h-9.91v44.51c0,10.82,7.33,10.87,12.67,7.82a21.94,21.94,0,0,0,5.69-5v5.88h9.91V176.4Zm8.81-95.32c-2.92,0-4.33,2.27-4.33,5.34v26c0,3,1.67,5.3,4.54,5.3s4.35-2.25,4.35-5.3v-26C147.06,83.29,145.69,81.08,142.5,81.08Zm29.56,94.64c-3.54,0-6.57,2.25-8.8,5V157.45h-10v72.21h10v-4.09c2.76,3.44,5.78,4.76,9.4,4.76,6.59,0,9.06-5.12,9.06-11.71V189.07C181.72,181.85,179.31,175.72,172.06,175.72Zm-.53,41.46a6,6,0,0,1-.87,3.66c-1.08,1.44-3.45,1.37-5.06.55a8.7,8.7,0,0,1-2.34-1.87V186.33a7.23,7.23,0,0,1,2-1.63,4.13,4.13,0,0,1,5.17.88,6.72,6.72,0,0,1,1.06,4.09Zm46.79-12.9V190.72c0-9.64-4.59-15.67-14.09-15.67-8.94,0-15,6.41-15,15.67v23.91c0,9.58,4.83,16.47,14.29,16.47,10.43,0,14.84-6.22,14.84-16.47v-4H208.13v3.7c0,4.64-.24,7.45-4.42,7.45-4,0-4.33-3.45-4.33-7.45v-10Zm-18.94-13.66c0-3.66.76-6.25,4.43-6.25s4.32,2.64,4.32,6.25V196h-8.75Zm18.94,13.66V190.72c0-9.64-4.59-15.67-14.09-15.67-8.94,0-15,6.41-15,15.67v23.91c0,9.58,4.83,16.47,14.29,16.47,10.43,0,14.84-6.22,14.84-16.47v-4H208.13v3.7c0,4.64-.24,7.45-4.42,7.45-4,0-4.33-3.45-4.33-7.45v-10Zm-18.94-13.66c0-3.66.76-6.25,4.43-6.25s4.32,2.64,4.32,6.25V196h-8.75Zm-27.32-14.9c-3.54,0-6.57,2.25-8.8,5V157.45h-10v72.21h10v-4.09c2.76,3.44,5.78,4.76,9.4,4.76,6.59,0,9.06-5.12,9.06-11.71V189.07C181.72,181.85,179.31,175.72,172.06,175.72Zm-.53,41.46a6,6,0,0,1-.87,3.66c-1.08,1.44-3.45,1.37-5.06.55a8.7,8.7,0,0,1-2.34-1.87V186.33a7.23,7.23,0,0,1,2-1.63,4.13,4.13,0,0,1,5.17.88,6.72,6.72,0,0,1,1.06,4.09ZM133.69,176.4v40.42c-1.2,1.52-3.89,4-5.82,4-2.11,0-2.63-1.45-2.63-3.59V176.4h-9.91v44.51c0,10.82,7.33,10.87,12.67,7.82a21.94,21.94,0,0,0,5.69-5v5.88h9.91V176.4ZM81.23,157.45v10.48H92.78v61.73h11.15V167.93h11.54V157.45ZM142.5,81.08c-2.92,0-4.33,2.27-4.33,5.34v26c0,3,1.67,5.3,4.54,5.3s4.35-2.25,4.35-5.3v-26C147.06,83.29,145.69,81.08,142.5,81.08ZM81.23,157.45v10.48H92.78v61.73h11.15V167.93h11.54V157.45Zm52.46,18.95v40.42c-1.2,1.52-3.89,4-5.82,4-2.11,0-2.63-1.45-2.63-3.59V176.4h-9.91v44.51c0,10.82,7.33,10.87,12.67,7.82a21.94,21.94,0,0,0,5.69-5v5.88h9.91V176.4Zm8.81-95.32c-2.92,0-4.33,2.27-4.33,5.34v26c0,3,1.67,5.3,4.54,5.3s4.35-2.25,4.35-5.3v-26C147.06,83.29,145.69,81.08,142.5,81.08Zm29.56,94.64c-3.54,0-6.57,2.25-8.8,5V157.45h-10v72.21h10v-4.09c2.76,3.44,5.78,4.76,9.4,4.76,6.59,0,9.06-5.12,9.06-11.71V189.07C181.72,181.85,179.31,175.72,172.06,175.72Zm-.53,41.46a6,6,0,0,1-.87,3.66c-1.08,1.44-3.45,1.37-5.06.55a8.7,8.7,0,0,1-2.34-1.87V186.33a7.23,7.23,0,0,1,2-1.63,4.13,4.13,0,0,1,5.17.88,6.72,6.72,0,0,1,1.06,4.09Zm46.79-12.9V190.72c0-9.64-4.59-15.67-14.09-15.67-8.94,0-15,6.41-15,15.67v23.91c0,9.58,4.83,16.47,14.29,16.47,10.43,0,14.84-6.22,14.84-16.47v-4H208.13v3.7c0,4.64-.24,7.45-4.42,7.45-4,0-4.33-3.45-4.33-7.45v-10Zm-18.94-13.66c0-3.66.76-6.25,4.43-6.25s4.32,2.64,4.32,6.25V196h-8.75Zm18.94,13.66V190.72c0-9.64-4.59-15.67-14.09-15.67-8.94,0-15,6.41-15,15.67v23.91c0,9.58,4.83,16.47,14.29,16.47,10.43,0,14.84-6.22,14.84-16.47v-4H208.13v3.7c0,4.64-.24,7.45-4.42,7.45-4,0-4.33-3.45-4.33-7.45v-10Zm-18.94-13.66c0-3.66.76-6.25,4.43-6.25s4.32,2.64,4.32,6.25V196h-8.75Zm-27.32-14.9c-3.54,0-6.57,2.25-8.8,5V157.45h-10v72.21h10v-4.09c2.76,3.44,5.78,4.76,9.4,4.76,6.59,0,9.06-5.12,9.06-11.71V189.07C181.72,181.85,179.31,175.72,172.06,175.72Zm-.53,41.46a6,6,0,0,1-.87,3.66c-1.08,1.44-3.45,1.37-5.06.55a8.7,8.7,0,0,1-2.34-1.87V186.33a7.23,7.23,0,0,1,2-1.63,4.13,4.13,0,0,1,5.17.88,6.72,6.72,0,0,1,1.06,4.09ZM133.69,176.4v40.42c-1.2,1.52-3.89,4-5.82,4-2.11,0-2.63-1.45-2.63-3.59V176.4h-9.91v44.51c0,10.82,7.33,10.87,12.67,7.82a21.94,21.94,0,0,0,5.69-5v5.88h9.91V176.4ZM81.23,157.45v10.48H92.78v61.73h11.15V167.93h11.54V157.45ZM142.5,81.08c-2.92,0-4.33,2.27-4.33,5.34v26c0,3,1.67,5.3,4.54,5.3s4.35-2.25,4.35-5.3v-26C147.06,83.29,145.69,81.08,142.5,81.08ZM81.23,157.45v10.48H92.78v61.73h11.15V167.93h11.54V157.45Zm52.46,18.95v40.42c-1.2,1.52-3.89,4-5.82,4-2.11,0-2.63-1.45-2.63-3.59V176.4h-9.91v44.51c0,10.82,7.33,10.87,12.67,7.82a21.94,21.94,0,0,0,5.69-5v5.88h9.91V176.4Zm8.81-95.32c-2.92,0-4.33,2.27-4.33,5.34v26c0,3,1.67,5.3,4.54,5.3s4.35-2.25,4.35-5.3v-26C147.06,83.29,145.69,81.08,142.5,81.08Zm29.56,94.64c-3.54,0-6.57,2.25-8.8,5V157.45h-10v72.21h10v-4.09c2.76,3.44,5.78,4.76,9.4,4.76,6.59,0,9.06-5.12,9.06-11.71V189.07C181.72,181.85,179.31,175.72,172.06,175.72Zm-.53,41.46a6,6,0,0,1-.87,3.66c-1.08,1.44-3.45,1.37-5.06.55a8.7,8.7,0,0,1-2.34-1.87V186.33a7.23,7.23,0,0,1,2-1.63,4.13,4.13,0,0,1,5.17.88,6.72,6.72,0,0,1,1.06,4.09Zm46.79-12.9V190.72c0-9.64-4.59-15.67-14.09-15.67-8.94,0-15,6.41-15,15.67v23.91c0,9.58,4.83,16.47,14.29,16.47,10.43,0,14.84-6.22,14.84-16.47v-4H208.13v3.7c0,4.64-.24,7.45-4.42,7.45-4,0-4.33-3.45-4.33-7.45v-10Zm-18.94-13.66c0-3.66.76-6.25,4.43-6.25s4.32,2.64,4.32,6.25V196h-8.75Zm18.94,13.66V190.72c0-9.64-4.59-15.67-14.09-15.67-8.94,0-15,6.41-15,15.67v23.91c0,9.58,4.83,16.47,14.29,16.47,10.43,0,14.84-6.22,14.84-16.47v-4H208.13v3.7c0,4.64-.24,7.45-4.42,7.45-4,0-4.33-3.45-4.33-7.45v-10Zm-18.94-13.66c0-3.66.76-6.25,4.43-6.25s4.32,2.64,4.32,6.25V196h-8.75Zm-27.32-14.9c-3.54,0-6.57,2.25-8.8,5V157.45h-10v72.21h10v-4.09c2.76,3.44,5.78,4.76,9.4,4.76,6.59,0,9.06-5.12,9.06-11.71V189.07C181.72,181.85,179.31,175.72,172.06,175.72Zm-.53,41.46a6,6,0,0,1-.87,3.66c-1.08,1.44-3.45,1.37-5.06.55a8.7,8.7,0,0,1-2.34-1.87V186.33a7.23,7.23,0,0,1,2-1.63,4.13,4.13,0,0,1,5.17.88,6.72,6.72,0,0,1,1.06,4.09ZM133.69,176.4v40.42c-1.2,1.52-3.89,4-5.82,4-2.11,0-2.63-1.45-2.63-3.59V176.4h-9.91v44.51c0,10.82,7.33,10.87,12.67,7.82a21.94,21.94,0,0,0,5.69-5v5.88h9.91V176.4ZM81.23,157.45v10.48H92.78v61.73h11.15V167.93h11.54V157.45ZM142.5,81.08c-2.92,0-4.33,2.27-4.33,5.34v26c0,3,1.67,5.3,4.54,5.3s4.35-2.25,4.35-5.3v-26C147.06,83.29,145.69,81.08,142.5,81.08ZM81.23,157.45v10.48H92.78v61.73h11.15V167.93h11.54V157.45Zm52.46,18.95v40.42c-1.2,1.52-3.89,4-5.82,4-2.11,0-2.63-1.45-2.63-3.59V176.4h-9.91v44.51c0,10.82,7.33,10.87,12.67,7.82a21.94,21.94,0,0,0,5.69-5v5.88h9.91V176.4Zm8.81-95.32c-2.92,0-4.33,2.27-4.33,5.34v26c0,3,1.67,5.3,4.54,5.3s4.35-2.25,4.35-5.3v-26C147.06,83.29,145.69,81.08,142.5,81.08Zm29.56,94.64c-3.54,0-6.57,2.25-8.8,5V157.45h-10v72.21h10v-4.09c2.76,3.44,5.78,4.76,9.4,4.76,6.59,0,9.06-5.12,9.06-11.71V189.07C181.72,181.85,179.31,175.72,172.06,175.72Zm-.53,41.46a6,6,0,0,1-.87,3.66c-1.08,1.44-3.45,1.37-5.06.55a8.7,8.7,0,0,1-2.34-1.87V186.33a7.23,7.23,0,0,1,2-1.63,4.13,4.13,0,0,1,5.17.88,6.72,6.72,0,0,1,1.06,4.09Zm46.79-12.9V190.72c0-9.64-4.59-15.67-14.09-15.67-8.94,0-15,6.41-15,15.67v23.91c0,9.58,4.83,16.47,14.29,16.47,10.43,0,14.84-6.22,14.84-16.47v-4H208.13v3.7c0,4.64-.24,7.45-4.42,7.45-4,0-4.33-3.45-4.33-7.45v-10Zm-18.94-13.66c0-3.66.76-6.25,4.43-6.25s4.32,2.64,4.32,6.25V196h-8.75Zm18.94,13.66V190.72c0-9.64-4.59-15.67-14.09-15.67-8.94,0-15,6.41-15,15.67v23.91c0,9.58,4.83,16.47,14.29,16.47,10.43,0,14.84-6.22,14.84-16.47v-4H208.13v3.7c0,4.64-.24,7.45-4.42,7.45-4,0-4.33-3.45-4.33-7.45v-10Zm-18.94-13.66c0-3.66.76-6.25,4.43-6.25s4.32,2.64,4.32,6.25V196h-8.75Zm-27.32-14.9c-3.54,0-6.57,2.25-8.8,5V157.45h-10v72.21h10v-4.09c2.76,3.44,5.78,4.76,9.4,4.76,6.59,0,9.06-5.12,9.06-11.71V189.07C181.72,181.85,179.31,175.72,172.06,175.72Zm-.53,41.46a6,6,0,0,1-.87,3.66c-1.08,1.44-3.45,1.37-5.06.55a8.7,8.7,0,0,1-2.34-1.87V186.33a7.23,7.23,0,0,1,2-1.63,4.13,4.13,0,0,1,5.17.88,6.72,6.72,0,0,1,1.06,4.09Zm-37.84-.36c-1.2,1.52-3.89,4-5.82,4-2.11,0-2.63-1.45-2.63-3.59V176.4h-9.91v44.51c0,10.82,7.33,10.87,12.67,7.82a21.94,21.94,0,0,0,5.69-5v5.88h9.91V176.4h-9.91Zm-18.22-59.37H81.23v10.48H92.78v61.73h11.15V167.93h11.54Zm27-76.37c-2.92,0-4.33,2.27-4.33,5.34v26c0,3,1.67,5.3,4.54,5.3s4.35-2.25,4.35-5.3v-26C147.06,83.29,145.69,81.08,142.5,81.08ZM149,0A149,149,0,1,0,298,149,149,149,0,0,0,149,0Zm17.48,70.92h10.4v42.89c0,2.24.54,3.76,2.77,3.76,2,0,4.84-2.6,6.12-4.19V70.93h10.39v55.93H185.77v-6.18c-4.52,5.35-8.88,7-12,7-5.57,0-7.26-4.47-7.26-10Zm-23.77-.45a14.59,14.59,0,0,1,14.94,15v27.41c0,9.4-6.58,15-14.94,15-10.09,0-15.24-5.13-15.24-15V85.5C127.47,76.52,133.54,70.47,142.71,70.47ZM100.52,51l8.08,30.3L116.11,51H128L114.37,96.1v30.76H102.66V96.1L88.73,51ZM234,223.66a23.84,23.84,0,0,1-23.84,23.84H87.6a23.84,23.84,0,0,1-23.84-23.84V163.43A23.84,23.84,0,0,1,87.6,139.58H210.16A23.84,23.84,0,0,1,234,163.43ZM204.23,175c-8.94,0-15,6.41-15,15.67v23.91c0,9.58,4.83,16.47,14.29,16.47,10.43,0,14.84-6.22,14.84-16.47v-4H208.13v3.7c0,4.64-.24,7.45-4.42,7.45-4,0-4.33-3.45-4.33-7.45v-10h18.94V190.72C218.32,181.08,213.73,175,204.23,175Zm3.9,21h-8.75v-5.38c0-3.66.76-6.25,4.43-6.25s4.32,2.64,4.32,6.25Zm-36.07-20.28c-3.54,0-6.57,2.25-8.8,5V157.45h-10v72.21h10v-4.09c2.76,3.44,5.78,4.76,9.4,4.76,6.59,0,9.06-5.12,9.06-11.71V189.07C181.72,181.85,179.31,175.72,172.06,175.72Zm-.53,41.46a6,6,0,0,1-.87,3.66c-1.08,1.44-3.45,1.37-5.06.55a8.7,8.7,0,0,1-2.34-1.87V186.33a7.23,7.23,0,0,1,2-1.63,4.13,4.13,0,0,1,5.17.88,6.72,6.72,0,0,1,1.06,4.09Zm-28.82-99.45c2.8,0,4.35-2.25,4.35-5.3v-26c0-3.13-1.37-5.34-4.56-5.34-2.92,0-4.33,2.27-4.33,5.34v26C138.17,115.38,139.84,117.73,142.71,117.73Zm-9,99.09c-1.2,1.52-3.89,4-5.82,4-2.11,0-2.63-1.45-2.63-3.59V176.4h-9.91v44.51c0,10.82,7.33,10.87,12.67,7.82a21.94,21.94,0,0,0,5.69-5v5.88h9.91V176.4h-9.91Zm-18.22-59.37H81.23v10.48H92.78v61.73h11.15V167.93h11.54Zm27-76.37c-2.92,0-4.33,2.27-4.33,5.34v26c0,3,1.67,5.3,4.54,5.3s4.35-2.25,4.35-5.3v-26C147.06,83.29,145.69,81.08,142.5,81.08ZM81.23,157.45v10.48H92.78v61.73h11.15V167.93h11.54V157.45Zm52.46,18.95v40.42c-1.2,1.52-3.89,4-5.82,4-2.11,0-2.63-1.45-2.63-3.59V176.4h-9.91v44.51c0,10.82,7.33,10.87,12.67,7.82a21.94,21.94,0,0,0,5.69-5v5.88h9.91V176.4Zm38.37-.68c-3.54,0-6.57,2.25-8.8,5V157.45h-10v72.21h10v-4.09c2.76,3.44,5.78,4.76,9.4,4.76,6.59,0,9.06-5.12,9.06-11.71V189.07C181.72,181.85,179.31,175.72,172.06,175.72Zm-.53,41.46a6,6,0,0,1-.87,3.66c-1.08,1.44-3.45,1.37-5.06.55a8.7,8.7,0,0,1-2.34-1.87V186.33a7.23,7.23,0,0,1,2-1.63,4.13,4.13,0,0,1,5.17.88,6.72,6.72,0,0,1,1.06,4.09Zm46.79-12.9V190.72c0-9.64-4.59-15.67-14.09-15.67-8.94,0-15,6.41-15,15.67v23.91c0,9.58,4.83,16.47,14.29,16.47,10.43,0,14.84-6.22,14.84-16.47v-4H208.13v3.7c0,4.64-.24,7.45-4.42,7.45-4,0-4.33-3.45-4.33-7.45v-10Zm-18.94-13.66c0-3.66.76-6.25,4.43-6.25s4.32,2.64,4.32,6.25V196h-8.75Zm18.94,13.66V190.72c0-9.64-4.59-15.67-14.09-15.67-8.94,0-15,6.41-15,15.67v23.91c0,9.58,4.83,16.47,14.29,16.47,10.43,0,14.84-6.22,14.84-16.47v-4H208.13v3.7c0,4.64-.24,7.45-4.42,7.45-4,0-4.33-3.45-4.33-7.45v-10Zm-18.94-13.66c0-3.66.76-6.25,4.43-6.25s4.32,2.64,4.32,6.25V196h-8.75Zm-27.32-14.9c-3.54,0-6.57,2.25-8.8,5V157.45h-10v72.21h10v-4.09c2.76,3.44,5.78,4.76,9.4,4.76,6.59,0,9.06-5.12,9.06-11.71V189.07C181.72,181.85,179.31,175.72,172.06,175.72Zm-.53,41.46a6,6,0,0,1-.87,3.66c-1.08,1.44-3.45,1.37-5.06.55a8.7,8.7,0,0,1-2.34-1.87V186.33a7.23,7.23,0,0,1,2-1.63,4.13,4.13,0,0,1,5.17.88,6.72,6.72,0,0,1,1.06,4.09Zm-29-136.1c-2.92,0-4.33,2.27-4.33,5.34v26c0,3,1.67,5.3,4.54,5.3s4.35-2.25,4.35-5.3v-26C147.06,83.29,145.69,81.08,142.5,81.08Zm-8.81,95.32v40.42c-1.2,1.52-3.89,4-5.82,4-2.11,0-2.63-1.45-2.63-3.59V176.4h-9.91v44.51c0,10.82,7.33,10.87,12.67,7.82a21.94,21.94,0,0,0,5.69-5v5.88h9.91V176.4ZM81.23,157.45v10.48H92.78v61.73h11.15V167.93h11.54V157.45ZM142.5,81.08c-2.92,0-4.33,2.27-4.33,5.34v26c0,3,1.67,5.3,4.54,5.3s4.35-2.25,4.35-5.3v-26C147.06,83.29,145.69,81.08,142.5,81.08ZM81.23,157.45v10.48H92.78v61.73h11.15V167.93h11.54V157.45Zm52.46,18.95v40.42c-1.2,1.52-3.89,4-5.82,4-2.11,0-2.63-1.45-2.63-3.59V176.4h-9.91v44.51c0,10.82,7.33,10.87,12.67,7.82a21.94,21.94,0,0,0,5.69-5v5.88h9.91V176.4Zm38.37-.68c-3.54,0-6.57,2.25-8.8,5V157.45h-10v72.21h10v-4.09c2.76,3.44,5.78,4.76,9.4,4.76,6.59,0,9.06-5.12,9.06-11.71V189.07C181.72,181.85,179.31,175.72,172.06,175.72Zm-.53,41.46a6,6,0,0,1-.87,3.66c-1.08,1.44-3.45,1.37-5.06.55a8.7,8.7,0,0,1-2.34-1.87V186.33a7.23,7.23,0,0,1,2-1.63,4.13,4.13,0,0,1,5.17.88,6.72,6.72,0,0,1,1.06,4.09Zm46.79-12.9V190.72c0-9.64-4.59-15.67-14.09-15.67-8.94,0-15,6.41-15,15.67v23.91c0,9.58,4.83,16.47,14.29,16.47,10.43,0,14.84-6.22,14.84-16.47v-4H208.13v3.7c0,4.64-.24,7.45-4.42,7.45-4,0-4.33-3.45-4.33-7.45v-10Zm-18.94-13.66c0-3.66.76-6.25,4.43-6.25s4.32,2.64,4.32,6.25V196h-8.75Zm18.94,13.66V190.72c0-9.64-4.59-15.67-14.09-15.67-8.94,0-15,6.41-15,15.67v23.91c0,9.58,4.83,16.47,14.29,16.47,10.43,0,14.84-6.22,14.84-16.47v-4H208.13v3.7c0,4.64-.24,7.45-4.42,7.45-4,0-4.33-3.45-4.33-7.45v-10Zm-18.94-13.66c0-3.66.76-6.25,4.43-6.25s4.32,2.64,4.32,6.25V196h-8.75Zm-27.32-14.9c-3.54,0-6.57,2.25-8.8,5V157.45h-10v72.21h10v-4.09c2.76,3.44,5.78,4.76,9.4,4.76,6.59,0,9.06-5.12,9.06-11.71V189.07C181.72,181.85,179.31,175.72,172.06,175.72Zm-.53,41.46a6,6,0,0,1-.87,3.66c-1.08,1.44-3.45,1.37-5.06.55a8.7,8.7,0,0,1-2.34-1.87V186.33a7.23,7.23,0,0,1,2-1.63,4.13,4.13,0,0,1,5.17.88,6.72,6.72,0,0,1,1.06,4.09Zm-29-136.1c-2.92,0-4.33,2.27-4.33,5.34v26c0,3,1.67,5.3,4.54,5.3s4.35-2.25,4.35-5.3v-26C147.06,83.29,145.69,81.08,142.5,81.08Zm-8.81,95.32v40.42c-1.2,1.52-3.89,4-5.82,4-2.11,0-2.63-1.45-2.63-3.59V176.4h-9.91v44.51c0,10.82,7.33,10.87,12.67,7.82a21.94,21.94,0,0,0,5.69-5v5.88h9.91V176.4ZM81.23,157.45v10.48H92.78v61.73h11.15V167.93h11.54V157.45ZM142.5,81.08c-2.92,0-4.33,2.27-4.33,5.34v26c0,3,1.67,5.3,4.54,5.3s4.35-2.25,4.35-5.3v-26C147.06,83.29,145.69,81.08,142.5,81.08ZM81.23,157.45v10.48H92.78v61.73h11.15V167.93h11.54V157.45Zm52.46,18.95v40.42c-1.2,1.52-3.89,4-5.82,4-2.11,0-2.63-1.45-2.63-3.59V176.4h-9.91v44.51c0,10.82,7.33,10.87,12.67,7.82a21.94,21.94,0,0,0,5.69-5v5.88h9.91V176.4Zm38.37-.68c-3.54,0-6.57,2.25-8.8,5V157.45h-10v72.21h10v-4.09c2.76,3.44,5.78,4.76,9.4,4.76,6.59,0,9.06-5.12,9.06-11.71V189.07C181.72,181.85,179.31,175.72,172.06,175.72Zm-.53,41.46a6,6,0,0,1-.87,3.66c-1.08,1.44-3.45,1.37-5.06.55a8.7,8.7,0,0,1-2.34-1.87V186.33a7.23,7.23,0,0,1,2-1.63,4.13,4.13,0,0,1,5.17.88,6.72,6.72,0,0,1,1.06,4.09Zm46.79-12.9V190.72c0-9.64-4.59-15.67-14.09-15.67-8.94,0-15,6.41-15,15.67v23.91c0,9.58,4.83,16.47,14.29,16.47,10.43,0,14.84-6.22,14.84-16.47v-4H208.13v3.7c0,4.64-.24,7.45-4.42,7.45-4,0-4.33-3.45-4.33-7.45v-10Zm-18.94-13.66c0-3.66.76-6.25,4.43-6.25s4.32,2.64,4.32,6.25V196h-8.75Zm18.94,13.66V190.72c0-9.64-4.59-15.67-14.09-15.67-8.94,0-15,6.41-15,15.67v23.91c0,9.58,4.83,16.47,14.29,16.47,10.43,0,14.84-6.22,14.84-16.47v-4H208.13v3.7c0,4.64-.24,7.45-4.42,7.45-4,0-4.33-3.45-4.33-7.45v-10Zm-18.94-13.66c0-3.66.76-6.25,4.43-6.25s4.32,2.64,4.32,6.25V196h-8.75Zm-27.32-14.9c-3.54,0-6.57,2.25-8.8,5V157.45h-10v72.21h10v-4.09c2.76,3.44,5.78,4.76,9.4,4.76,6.59,0,9.06-5.12,9.06-11.71V189.07C181.72,181.85,179.31,175.72,172.06,175.72Zm-.53,41.46a6,6,0,0,1-.87,3.66c-1.08,1.44-3.45,1.37-5.06.55a8.7,8.7,0,0,1-2.34-1.87V186.33a7.23,7.23,0,0,1,2-1.63,4.13,4.13,0,0,1,5.17.88,6.72,6.72,0,0,1,1.06,4.09Zm-29-136.1c-2.92,0-4.33,2.27-4.33,5.34v26c0,3,1.67,5.3,4.54,5.3s4.35-2.25,4.35-5.3v-26C147.06,83.29,145.69,81.08,142.5,81.08Zm-8.81,95.32v40.42c-1.2,1.52-3.89,4-5.82,4-2.11,0-2.63-1.45-2.63-3.59V176.4h-9.91v44.51c0,10.82,7.33,10.87,12.67,7.82a21.94,21.94,0,0,0,5.69-5v5.88h9.91V176.4ZM81.23,157.45v10.48H92.78v61.73h11.15V167.93h11.54V157.45ZM142.5,81.08c-2.92,0-4.33,2.27-4.33,5.34v26c0,3,1.67,5.3,4.54,5.3s4.35-2.25,4.35-5.3v-26C147.06,83.29,145.69,81.08,142.5,81.08Zm0,0c-2.92,0-4.33,2.27-4.33,5.34v26c0,3,1.67,5.3,4.54,5.3s4.35-2.25,4.35-5.3v-26C147.06,83.29,145.69,81.08,142.5,81.08Z"/></g></g></svg>